<svg xmlns="http://www.w3.org/2000/svg" xmlns:xlink="http://www.w3.org/1999/xlink"><defs>
        <clipPath id="a">
            <path fill="#fff" transform="rotate(90 17.5 58.5)" d="M0 0h70v24H0z"/>
        </clipPath>
    </defs><symbol id="arrow-right"><g fill="none">
    <path d="M40 52.213a29.836 29.836 0 0 0 15.297 8.21 29.76 29.76 0 0 0 17.26-1.707 29.902 29.902 0 0 0 13.408-11.049A30.089 30.089 0 0 0 91 31a30.089 30.089 0 0 0-5.035-16.667 29.902 29.902 0 0 0-13.407-11.05 29.76 29.76 0 0 0-17.262-1.707A29.837 29.837 0 0 0 40 9.786" stroke="#1F1E1E" stroke-width="2" stroke-linecap="round"/>
    <path d="M5 31h60M58 24l7 7-7 7" stroke="#1F1E1E" stroke-width="2" stroke-linecap="round" stroke-linejoin="round"/>
</g></symbol><symbol id="LENNI" viewBox="0 0 1920 325"><g fill="none">
    <path d="M485.389 317.073V0H0v325h647.345v-7.927H485.389ZM675.453 325h200.745v-7.927H713.443V159.935h126.765v-7.926H713.443V7.927H876V0H675.453v325ZM941.896 325V8.393c34.39 0 141.564 13.989 149.554 194.907V325h37.99V0h-37.99v143.615c-9.59-48.027-28.39-82.998-57.18-108.177C998.68 3.73 958.291 0 941.896 0h-37.99v325h37.99ZM1207.45 325V8.393c34.39 0 141.56 13.989 149.56 194.907V325H1395V0h-37.99v143.615c-9.6-48.027-28.4-82.998-57.19-108.177C1264.23 3.73 1223.84 0 1207.45 0h-37.99v325h37.99ZM1473 0h-37.99v325H1920V0h-447Z" fill="#1F1E1E"/>
</g></symbol><symbol id="logo" viewBox="0 0 202 147"><g fill="none">
    <path fill="#1F1E1E" d="M0 0h147v147H0z"/>
    <path d="M39.965 72.439H26.633V50.032h-.032v-.033h-4.686V73h18.05v-.561ZM43.932 73h18.117v-.561H48.618V61.285h10.494v-.594H48.618V50.56h13.43v-.561H43.933V73ZM70.7 73V50.56c2.87 0 11.714 1.089 12.374 13.893V73h4.686V49.999h-4.686v10.329C81.655 54.19 77.167 49.999 70.7 49.999h-4.686V73H70.7ZM97.39 73V50.56c2.87 0 11.714 1.089 12.374 13.893V73h4.686V49.999h-4.686v10.329c-1.419-6.138-5.907-10.329-12.375-10.329h-4.686V73h4.686ZM119.393 73h4.686V49.999h-4.686V73Z" fill="#fff"/>
    <path fill="#BC3324" d="M81 92h121v42H81z"/>
    <path d="M108.922 124h.54l2.94-8.55h8.55l3.33 8.55h4.47l-8.1-20.91h-4.53l-7.2 20.91Zm7.5-20.25 4.35 11.19h-8.19l3.84-11.19ZM132.644 103.09V124h4.26v-7.23h5.07l4.89 7.2h4.86l-5.16-7.65c3-.78 5.28-2.64 5.28-6.81 0-5.22-3.81-6.87-8.25-6.87-4.68 0-6.03 3.51-6.69 7.41v-6.96h-4.26Zm5.43 4.38c.81-2.94 2.91-4.14 4.77-4.29 4.47-.42 4.65 2.43 4.65 6.33 0 6.33-3.36 6.75-6.24 6.75h-4.35s-.12-4.14 1.17-8.79ZM162.084 103.6l.03 20.4h4.26v-20.4h8.61v-.51h-21.51v.51h8.61Z" fill="#fff"/>
</g></symbol><symbol id="show-hide"><g fill="none">
    <path d="M42.787 81a29.836 29.836 0 0 0-8.21 15.297 29.76 29.76 0 0 0 1.707 17.261 29.903 29.903 0 0 0 11.049 13.407A30.087 30.087 0 0 0 64 132a30.087 30.087 0 0 0 16.667-5.035 29.903 29.903 0 0 0 11.05-13.407 29.76 29.76 0 0 0 1.707-17.262A29.836 29.836 0 0 0 85.214 81" stroke="#1F1E1E" stroke-width="2" stroke-linecap="round"/>
    <g clip-path="url(#a)" stroke="#1F1E1E" stroke-width="2" stroke-linecap="round" stroke-linejoin="round">
        <path d="M64 46v60M71 99l-7 7-7-7"/>
    </g>
    <path d="M8.984 18V6.578h8.774V18h-1.86V8.172H10.86V18H8.984Zm19.266-4.344c0 .719-.094 1.357-.281 1.914a3.834 3.834 0 0 1-.82 1.414c-.36.38-.792.672-1.297.875-.506.198-1.076.297-1.711.297a4.359 4.359 0 0 1-1.633-.297 3.725 3.725 0 0 1-1.29-.875 4.01 4.01 0 0 1-.835-1.414c-.198-.557-.297-1.195-.297-1.914 0-.953.164-1.76.492-2.422A3.506 3.506 0 0 1 22 9.711c.615-.349 1.346-.524 2.195-.524.797 0 1.5.175 2.11.524.61.349 1.086.857 1.43 1.523.343.667.515 1.474.515 2.422Zm-6.273 0c0 .63.075 1.17.226 1.617.156.448.396.792.719 1.032.323.234.74.351 1.25.351s.927-.117 1.25-.351c.323-.24.56-.584.71-1.032.152-.447.227-.986.227-1.617 0-.63-.075-1.164-.226-1.601-.151-.443-.388-.779-.711-1.008-.323-.235-.742-.352-1.258-.352-.76 0-1.315.255-1.664.766-.349.51-.523 1.242-.523 2.195Zm13.742-4.304h2.023l-3.578 4.156L38.047 18H35.93l-3.727-4.39V18H30.36V9.352h1.844v4.195l3.516-4.195Zm7.125-.165c1.093 0 1.919.243 2.476.727.563.484.844 1.24.844 2.266V18H44.86l-.351-1.227h-.063c-.245.313-.497.57-.758.774-.26.203-.562.354-.906.453-.338.104-.752.156-1.242.156-.516 0-.977-.093-1.383-.281a2.198 2.198 0 0 1-.96-.875c-.235-.39-.352-.885-.352-1.484 0-.891.33-1.56.992-2.008.667-.448 1.672-.695 3.016-.742l1.5-.055v-.453c0-.6-.141-1.026-.422-1.281-.276-.256-.667-.383-1.172-.383-.433 0-.852.062-1.258.187a8.887 8.887 0 0 0-1.188.461l-.593-1.297a6.658 6.658 0 0 1 1.437-.547 6.689 6.689 0 0 1 1.688-.21Zm1.5 4.68-1.117.04c-.917.03-1.56.187-1.93.468-.37.281-.555.667-.555 1.156 0 .427.128.74.383.938.255.192.591.289 1.008.289.635 0 1.161-.18 1.578-.54.422-.364.633-.898.633-1.6v-.75Zm7.078-4.68c.635 0 1.206.086 1.71.258.511.167.915.42 1.212.758.297.339.445.76.445 1.266 0 .52-.151.937-.453 1.25-.297.307-.7.528-1.211.664v.07c.36.089.685.216.977.383.291.161.523.38.695.656.177.271.266.62.266 1.047a2.2 2.2 0 0 1-.43 1.32c-.281.396-.714.711-1.297.946-.583.234-1.326.351-2.227.351-.432 0-.843-.023-1.234-.07a8.036 8.036 0 0 1-1.055-.18 4.476 4.476 0 0 1-.828-.297v-1.578c.36.172.794.328 1.305.469.51.135 1.057.203 1.64.203.433 0 .823-.039 1.172-.117.355-.083.633-.219.836-.406.209-.188.313-.438.313-.75a.978.978 0 0 0-.274-.711c-.182-.188-.455-.326-.82-.414-.364-.094-.825-.14-1.383-.14H49.75v-1.352h.906c.766 0 1.365-.084 1.797-.25.438-.172.656-.47.656-.891a.863.863 0 0 0-.46-.797c-.308-.177-.78-.266-1.415-.266-.437 0-.87.05-1.297.149-.427.094-.854.229-1.28.406l-.579-1.351a8.824 8.824 0 0 1 3.344-.625Zm9.016 0c1.093 0 1.919.243 2.476.727.563.484.844 1.24.844 2.266V18h-1.305l-.351-1.227h-.063a4.46 4.46 0 0 1-.758.774c-.26.203-.562.354-.906.453-.339.104-.753.156-1.242.156-.516 0-.977-.093-1.383-.281a2.197 2.197 0 0 1-.96-.875c-.235-.39-.352-.885-.352-1.484 0-.891.33-1.56.992-2.008.666-.448 1.672-.695 3.015-.742l1.5-.055v-.453c0-.6-.14-1.026-.422-1.281-.276-.256-.666-.383-1.171-.383-.433 0-.852.062-1.258.187a8.888 8.888 0 0 0-1.188.461l-.593-1.297a6.659 6.659 0 0 1 1.437-.547 6.689 6.689 0 0 1 1.688-.21Zm1.5 4.68-1.118.04c-.916.03-1.56.187-1.93.468-.37.281-.554.667-.554 1.156 0 .427.128.74.383.938.255.192.59.289 1.008.289.635 0 1.161-.18 1.578-.54.422-.364.633-.898.633-1.6v-.75Zm10.921-3.07h-2.843V18h-1.829v-7.203H65.36V9.352h7.5v1.445Zm3.516 2.008h2.148c.813 0 1.485.093 2.016.28.537.183.938.46 1.203.83.266.369.399.832.399 1.39 0 .547-.125 1.023-.375 1.43-.25.4-.641.713-1.172.937-.526.219-1.214.328-2.063.328h-4V9.352h1.844v3.453Zm3.922 2.547c0-.433-.162-.737-.484-.915-.323-.182-.784-.273-1.383-.273h-2.055v2.484h2.07c.547 0 .993-.099 1.336-.296.344-.204.516-.537.516-1Zm11.476-6.165c.771 0 1.433.16 1.985.477.552.318.976.768 1.273 1.352.297.583.446 1.28.446 2.093v.985h-5.774c.021.838.245 1.484.672 1.937.432.453 1.037.68 1.813.68.552 0 1.046-.052 1.484-.156a8.24 8.24 0 0 0 1.367-.477v1.492a5.976 5.976 0 0 1-1.32.446c-.448.093-.985.14-1.61.14-.849 0-1.596-.164-2.242-.492a3.601 3.601 0 0 1-1.508-1.484c-.359-.657-.539-1.472-.539-2.446 0-.968.164-1.791.493-2.468.328-.678.789-1.193 1.382-1.547.594-.354 1.287-.531 2.078-.531Zm0 1.383c-.578 0-1.046.188-1.406.563-.354.375-.562.924-.625 1.648h3.938a3.027 3.027 0 0 0-.22-1.148 1.665 1.665 0 0 0-.624-.781c-.276-.188-.63-.282-1.063-.282Zm18.016-1.218v7.234h1.25v4.453h-1.727V18H97.547V9.352h1.836v7.203h3.359V9.352h1.844v7.203h3.367V9.352h1.836Zm6.266-.165c.771 0 1.432.16 1.984.477.552.318.977.768 1.273 1.352.297.583.446 1.28.446 2.093v.985h-5.774c.021.838.245 1.484.672 1.937.433.453 1.037.68 1.813.68.552 0 1.047-.052 1.484-.156.443-.11.899-.268 1.367-.477v1.492a5.967 5.967 0 0 1-1.32.446 7.96 7.96 0 0 1-1.609.14c-.849 0-1.597-.164-2.243-.492a3.6 3.6 0 0 1-1.507-1.484c-.36-.657-.539-1.472-.539-2.446 0-.968.164-1.791.492-2.468.328-.678.789-1.193 1.383-1.547.593-.354 1.286-.531 2.078-.531Zm0 1.383c-.578 0-1.047.188-1.407.563-.354.375-.562.924-.625 1.648h3.938a3.017 3.017 0 0 0-.219-1.148 1.665 1.665 0 0 0-.625-.781c-.276-.188-.63-.282-1.062-.282Z" fill="#1F1E1E"/>
    
</g></symbol><symbol id="x" viewBox="0 0 60 60"><g fill="none">
    <circle cx="30" cy="30" r="30" fill="#1F1E1E"/>
    <path d="M36 24 24 36M24 24l12 12" stroke="#fff" stroke-width="2" stroke-linecap="round" stroke-linejoin="round"/>
</g></symbol></svg>