<svg xmlns="http://www.w3.org/2000/svg" xmlns:xlink="http://www.w3.org/1999/xlink"><defs>
        <linearGradient id="a" x1="148" y1="0" x2="32.829" y2="0" gradientUnits="userSpaceOnUse">
            <stop stop-color="#1C1B1B"/>
            <stop offset="1" stop-color="#fff" stop-opacity="0"/>
        </linearGradient>
        <linearGradient id="b" x1="148" y1="91" x2="32.829" y2="91" gradientUnits="userSpaceOnUse">
            <stop stop-color="#1C1B1B"/>
            <stop offset="1" stop-color="#fff" stop-opacity="0"/>
        </linearGradient>
    
        <linearGradient id="a" x1="320" y1="92" x2="187.429" y2="92" gradientUnits="userSpaceOnUse">
            <stop stop-color="#1C1B1B"/>
            <stop offset="1" stop-color="#fff" stop-opacity="0"/>
        </linearGradient>
        <linearGradient id="b" x1="320" y1="1" x2="187.429" y2="1" gradientUnits="userSpaceOnUse">
            <stop stop-color="#1C1B1B"/>
            <stop offset="1" stop-color="#fff" stop-opacity="0"/>
        </linearGradient>
    
        <clipPath id="a">
            <path fill="#fff" transform="rotate(90 17.5 58.5)" d="M0 0h70v24H0z"/>
        </clipPath>
    </defs><symbol id="arrow-right" viewBox="0 0 92 62"><g fill="none">
    <path d="M40 52.213a29.836 29.836 0 0 0 15.297 8.21 29.76 29.76 0 0 0 17.26-1.707 29.902 29.902 0 0 0 13.408-11.049A30.089 30.089 0 0 0 91 31a30.089 30.089 0 0 0-5.035-16.667 29.902 29.902 0 0 0-13.407-11.05 29.76 29.76 0 0 0-17.262-1.707A29.837 29.837 0 0 0 40 9.786" stroke="currentColor" stroke-width="2" stroke-linecap="round"/>
    <path d="M5 31h60M58 24l7 7-7 7" stroke="currentColor" stroke-width="2" stroke-linecap="round" stroke-linejoin="round"/>
</g></symbol><symbol id="article_date" viewBox="0 0 150 92"><g fill="none">
    <path d="M1.877 33.33c.03-.09 2.88-5.46 4.08-10.98V39h2.85V18.09h-2.85c0 6.42-4.47 14.91-4.53 15l.45.24Zm9.486-4.74c0 8.1 3.9 10.89 9.06 10.89 4.92 0 8.7-2.73 8.7-7.98s-3.72-7.95-8.64-7.95c-3.42 0-5.64 2.46-6.12 5.7 0-7.08 2.1-11.1 6.06-11.1 2.82 0 4.14 1.74 4.59 4.8l3.03-.75c-1.5-3.15-4.05-4.56-7.62-4.56-4.74.03-9.06 3.45-9.06 10.95Zm9.12-4.53c3.18 0 5.7 2.25 5.7 7.44 0 5.13-2.67 7.47-5.76 7.47-3.3 0-4.62-1.38-5.55-5.04-.87-4.11.57-9.87 5.61-9.87Zm17.463-6.78h-.54l-7.23 22.95h.54l7.23-22.95Zm1.285 16.05c.03-.09 2.88-5.46 4.08-10.98V39h2.85V18.09h-2.85c0 6.42-4.47 14.91-4.53 15l.45.24Zm9.785-9.15 3.12.42c0-2.85.45-6.51 4.26-6.51 2.46 0 4.53 1.95 4.53 6.36 0 4.29-1.86 5.28-5.43 6.51-3.57 1.23-6.36 2.22-6.36 8.04h15.48v-2.85h-14.67c.78-3 2.94-3.75 5.7-4.71 3.51-1.2 8.22-2.52 8.22-6.99 0-4.47-3.3-6.75-7.47-6.75-3.66 0-7.38 1.86-7.38 6.48Zm24.73-6.9h-.54l-7.23 22.95h.54l7.23-22.95Zm1.286 6.9 3.12.42c0-2.85.45-6.51 4.26-6.51 2.46 0 4.53 1.95 4.53 6.36 0 4.29-1.86 5.28-5.43 6.51-3.57 1.23-6.36 2.22-6.36 8.04h15.48v-2.85h-14.67c.78-3 2.94-3.75 5.7-4.71 3.51-1.2 8.22-2.52 8.22-6.99 0-4.47-3.3-6.75-7.47-6.75-3.66 0-7.38 1.86-7.38 6.48Zm18.01 4.38c0 7.65 4.68 10.89 9.63 10.92 4.98-.03 9.66-3.27 9.66-10.92 0-7.5-4.68-10.89-9.66-10.92-4.95.03-9.63 3.42-9.63 10.92Zm9.63-10.5c3.6 0 6.75 1.95 6.75 10.5 0 8.61-3.15 10.5-6.75 10.5-3.57 0-6.69-1.83-6.69-10.5 0-8.55 3.12-10.5 6.69-10.5Zm12.057 6.12 3.12.42c0-2.85.45-6.51 4.26-6.51 2.46 0 4.53 1.95 4.53 6.36 0 4.29-1.86 5.28-5.43 6.51-3.57 1.23-6.36 2.22-6.36 8.04h15.48v-2.85h-14.67c.78-3 2.94-3.75 5.7-4.71 3.51-1.2 8.22-2.52 8.22-6.99 0-4.47-3.3-6.75-7.47-6.75-3.66 0-7.38 1.86-7.38 6.48Zm18.31 0 3.12.42c0-2.85.45-6.51 4.26-6.51 2.46 0 4.53 1.95 4.53 6.36 0 4.29-1.86 5.28-5.43 6.51-3.57 1.23-6.36 2.22-6.36 8.04h15.48v-2.85h-14.67c.78-3 2.94-3.75 5.7-4.71 3.51-1.2 8.22-2.52 8.22-6.99 0-4.47-3.3-6.75-7.47-6.75-3.66 0-7.38 1.86-7.38 6.48ZM5.8 74h2.304v-5.632H9.48c3.472 0 3.552 2.928 3.552 5.632h2.304c0-3.232-.976-5.312-4.416-5.808l3.328-5.344h-.368l-3.296 5.296c-.4-.032-.64-.048-1.056-.048H8.104v-5.248H5.8V74Zm10.57 0h.289l1.568-4.56h4.56L24.563 74h2.384l-4.32-11.152H20.21L16.37 74Zm4-10.8 2.32 5.968h-4.367L20.37 63.2Zm6.487 5.28c0 3.584 3.056 4.528 6.352 4.528h.256V74h2.32v-.992h.24c3.296 0 6.352-.944 6.352-4.528 0-3.584-3.04-4.656-6.32-4.656H35.8v-.976h-2.336v.976h-.272c-3.296 0-6.336 1.072-6.336 4.656Zm2.32-.08c0-2.928 1.552-4.304 3.952-4.304h.336v8.64h-.336c-2.4 0-3.952-1.408-3.952-4.336Zm6.608 4.336v-8.64h.336c2.384 0 3.952 1.376 3.952 4.304 0 2.928-1.568 4.336-3.952 4.336h-.336ZM43.738 74h8.784v-.272H46.01v-5.392h5.087v-.272H46.01V63.12h6.512v-.272h-8.785V74Zm24.12 0h.4l-5.056-4.512 5.056-4.512h-.4l-5.04 4.512L67.858 74Zm-7.968-4.512L64.93 74h.4l-5.04-4.512 5.04-4.512h-.4l-5.04 4.512ZM71.963 74V63.12h6V74h2.272V62.848H69.69V74h2.272Zm13.66-10.88L85.64 74h2.272V63.12h4.592v-.272H81.031v.272h4.592ZM93.3 74h2.272c3.152 0 5.36-2.08 6-5.008V74h2.272V62.848h-2.272v4.064c-.32 6.208-4.512 6.816-6 6.816v-10.88H93.3V74Zm15.789-3.84c2.352.016 3.312-2.96 3.632-4.928V74h2.304V62.848h-2.304c0 2.176-.848 7.04-3.632 7.04-.96 0-1.36-.912-1.36-3.152v-3.888h-2.288v3.856c0 2.288 1.248 3.456 3.648 3.456Zm7.539 3.84h2.304v-5.632h1.376c3.472 0 3.552 2.928 3.552 5.632h2.304c0-3.232-.976-5.312-4.416-5.808l3.328-5.344h-.368l-3.296 5.296c-.4-.032-.64-.048-1.056-.048h-1.424v-5.248h-2.304V74Zm10.571 0h.288l1.568-4.56h4.56l1.776 4.56h2.384l-4.32-11.152h-2.416L127.199 74Zm4-10.8 2.32 5.968h-4.368l2.048-5.968Zm10.619 1.776 5.04 4.512-5.04 4.512h.384l5.056-4.512-5.056-4.512h-.384ZM139.29 74l5.04-4.512-5.04-4.512h-.4l5.04 4.512L138.89 74h.4Z" fill="#1F1E1E"/>
    <path fill="url(#a)" d="M9 0h139v1H9z"/>
    <path fill="url(#b)" d="M9 91h139v1H9z"/>
    
</g></symbol><symbol id="article_time" viewBox="0 0 178 92"><g fill="none">
    <path d="m1.35 24.18 3.12.42c0-2.85.45-6.51 4.26-6.51 2.46 0 4.53 1.95 4.53 6.36 0 4.29-1.86 5.28-5.43 6.51-3.57 1.23-6.36 2.22-6.36 8.04h15.48v-2.85H2.28c.78-3 2.94-3.75 5.7-4.71 3.51-1.2 8.22-2.52 8.22-6.99 0-4.47-3.3-6.75-7.47-6.75-3.66 0-7.38 1.86-7.38 6.48Zm18.01 4.38c0 7.65 4.68 10.89 9.63 10.92 4.98-.03 9.66-3.27 9.66-10.92 0-7.5-4.68-10.89-9.66-10.92-4.95.03-9.63 3.42-9.63 10.92Zm9.63-10.5c3.6 0 6.75 1.95 6.75 10.5 0 8.61-3.15 10.5-6.75 10.5-3.57 0-6.69-1.83-6.69-10.5 0-8.55 3.12-10.5 6.69-10.5Zm11.307 19.47c0 1.08.87 1.95 1.95 1.95s1.95-.87 1.95-1.95-.87-1.98-1.95-1.98-1.95.9-1.95 1.98Zm5.519-8.97c0 7.65 4.68 10.89 9.63 10.92 4.98-.03 9.66-3.27 9.66-10.92 0-7.5-4.68-10.89-9.66-10.92-4.95.03-9.63 3.42-9.63 10.92Zm9.63-10.5c3.6 0 6.75 1.95 6.75 10.5 0 8.61-3.15 10.5-6.75 10.5-3.57 0-6.69-1.83-6.69-10.5 0-8.55 3.12-10.5 6.69-10.5Zm11.756 10.5c0 7.65 4.68 10.89 9.63 10.92 4.98-.03 9.66-3.27 9.66-10.92 0-7.5-4.68-10.89-9.66-10.92-4.95.03-9.63 3.42-9.63 10.92Zm9.63-10.5c3.6 0 6.75 1.95 6.75 10.5 0 8.61-3.15 10.5-6.75 10.5-3.57 0-6.69-1.83-6.69-10.5 0-8.55 3.12-10.5 6.69-10.5ZM100.96 28.848V40h2.272v-5.648h6.144V40h2.272V28.848h-2.272v5.232h-6.144v-5.232h-2.272ZM113.089 40h.288l1.568-4.56h4.56l1.776 4.56h2.384l-4.32-11.152h-2.416L113.089 40Zm4-10.8 2.32 5.968h-4.368l2.048-5.968Zm9.656 6.96c2.352.016 3.312-2.96 3.632-4.928V40h2.304V28.848h-2.304c0 2.176-.848 7.04-3.632 7.04-.96 0-1.36-.912-1.36-3.152v-3.888h-2.288v3.856c0 2.288 1.248 3.456 3.648 3.456Zm7.219 3.84h.288l1.568-4.56h4.56l1.776 4.56h2.384l-4.32-11.152h-2.416L133.964 40Zm4-10.8 2.32 5.968h-4.368l2.048-5.968Zm7.297 10.8h.288l3.712-10.768L153.453 40h2.384l-4.32-11.152h-2.416L145.261 40Zm10.487-5.536c0 4.048 3.392 5.792 6.688 5.792 3.312 0 6.688-1.744 6.688-5.792 0-4.032-3.376-5.856-6.688-5.856s-6.688 1.824-6.688 5.856Zm6.688-5.6c2.4 0 4.336 1.408 4.336 5.568 0 4.176-1.936 5.584-4.336 5.584-2.4 0-4.336-1.408-4.336-5.584 0-4.16 1.936-5.568 4.336-5.568ZM.48 74h.288L4.48 63.232 8.672 74h2.384l-4.32-11.152H4.32L.48 74Zm11.851 0h8.784v-.272h-6.512v-5.392h5.088v-.272h-5.088V63.12h6.512v-.272h-8.784V74Zm10.067-11.152V74h2.271v-5.648h6.145V74h2.272V62.848h-2.272v5.232h-6.145v-5.232h-2.271ZM34.846 74h2.272c3.152 0 5.36-2.08 6-5.008V74h2.272V62.848h-2.272v4.064c-.32 6.208-4.512 6.816-6 6.816v-10.88h-2.272V74Zm12.3-11.152V74h2.273v-5.648h6.143V74h2.273V62.848h-2.273v5.232H49.42v-5.232h-2.271ZM59.278 74h.288l1.568-4.56h4.56L67.469 74h2.384l-4.32-11.152h-2.416L59.277 74Zm4-10.8 2.32 5.968h-4.368l2.048-5.968Zm13.937 7.776c.016-.048 1.536-2.944 2.176-5.888V74h2.272V62.848H79.39c0 3.424-2.384 7.952-2.416 8l.24.128Zm5.815-2.544c0 4.08 2.88 5.808 5.52 5.824 2.64-.016 5.52-1.744 5.52-5.824 0-4-2.864-5.808-5.52-5.824-2.64.016-5.52 1.824-5.52 5.824Zm5.52-5.584c1.92 0 3.216 1.04 3.216 5.584 0 4.592-1.296 5.6-3.216 5.6-1.92 0-3.2-.976-3.2-5.6 0-4.544 1.28-5.584 3.2-5.584Zm13.714-1.248h-.272v13.936h.272V61.6Zm7.922 4.496 2.416.224c0-1.52-.128-3.44 1.904-3.44 1.312 0 2.048 1.008 2.048 3.36 0 2.288-.544 2.784-2.528 3.472-1.904.656-3.392 1.184-3.392 4.288h8.256v-2.272h-7.536c.544-.992 1.536-1.344 2.752-1.76 1.808-.624 4.752-1.44 4.752-3.728 0-2.448-1.12-3.616-4.352-3.616-2.528 0-4.32 1.008-4.32 3.472Zm16.313 6.208c1.92 1.888 4.224 1.952 5.424 1.952 3.776 0 6.24-2.496 6.24-5.824 0-3.36-2.464-5.824-6.24-5.824-3.008 0-4.496 1.552-4.704 2.816l.304.064c.448-2.064 2.768-2.608 4.4-2.608 2.624 0 3.76 2 3.84 5.184h-4.112v.272h4.112c0 3.584-1.44 5.616-3.84 5.616-1.152.016-3.392-.016-5.232-1.824l-.192.176Zm15.532-9.184.016 10.88h2.272V63.12h4.592v-.272h-11.472v.272h4.592ZM148.105 74h.288l1.568-4.56h4.56l1.776 4.56h2.384l-4.32-11.152h-2.416L148.105 74Zm4-10.8 2.32 5.968h-4.368l2.048-5.968Zm7.611 10.8h2.336c0-2.72.08-5.68 3.536-5.68h1.392V74h2.256v-5.68h1.04c3.808 0 3.872 2.96 3.872 5.68h2.352c0-4.016-1.936-5.952-6.032-5.952V66.72c0-1.904.224-3.904 2.416-3.904 1.472 0 2.368.896 2.368 2.08a2.069 2.069 0 0 1-2.064 2.064v.272c1.28 0 2.32-1.056 2.32-2.336 0-1.328-.992-2.336-2.64-2.336-2.464 0-2.656 2.256-2.656 4.368v1.12h-.976v-5.2h-2.256v5.2h-.976v-1.136c0-2.112-.192-4.368-2.656-4.368-1.648 0-2.656 1.008-2.656 2.336a2.339 2.339 0 0 0 2.336 2.336v-.256c-1.136 0-2.064-.944-2.064-2.08 0-1.184.88-2.08 2.352-2.08 2.208 0 2.432 2 2.432 3.904v1.344c-4.096 0-6.032 1.936-6.032 5.952Z" fill="#1F1E1E"/>
    <path transform="rotate(180 160 92)" fill="url(#a)" d="M160 92h160v1H160z"/>
    <path transform="rotate(180 160 1)" fill="url(#b)" d="M160 1h160v1H160z"/>
    
</g></symbol><symbol id="black_rect" viewBox="0 0 24 24"><g fill="none">
    <path fill="#1F1E1E" d="M0 0h24v24H0z"/>
</g></symbol><symbol id="contact" viewBox="0 0 110 110"><g fill="none">
    <path fill="#1F1E1E" d="M0 0h110v110H0z"/>
    <path d="M65 59.92v3a2 2 0 0 1-2.18 2 19.79 19.79 0 0 1-8.63-3.07 19.499 19.499 0 0 1-6-6 19.79 19.79 0 0 1-3.07-8.67A2 2 0 0 1 47.11 45h3a2 2 0 0 1 2 1.72c.127.96.361 1.903.7 2.81a2 2 0 0 1-.45 2.11l-1.27 1.27a16 16 0 0 0 6 6l1.27-1.27a2 2 0 0 1 2.11-.45c.907.339 1.85.574 2.81.7A2 2 0 0 1 65 59.92Z" fill="#BC3324"/>
</g></symbol><symbol id="cross_ellipse"><g fill="none">
    <rect width="100%" height="100%"/>
    <g class="currentLayer">
        <circle cx="29.092" cy="12.06" r="11.5" stroke="#BC3324"/>
        <circle cx="14.187" cy="12.06" r="11.5" stroke="#000"/>
    </g>
</g></symbol><symbol id="door" viewBox="0 0 24 24"><g fill="none">
    <path d="m10 17 5-5-5-5M15 12H3M15 3h4a2 2 0 0 1 2 2v14a2 2 0 0 1-2 2h-4" stroke="#1F1E1E" stroke-width="2" stroke-linecap="round" stroke-linejoin="round"/>
</g></symbol><symbol id="handshake" viewBox="0 0 110 110"><g fill="none">
    <path fill="#1F1E1E" d="M0 0h110v110H0z"/>
    <path d="M59.48 53.41c-.39.39-1.04.39-1.43 0l-4.47-4.46-7.05 7.04-.66-.63a3 3 0 0 1 0-4.24l4.24-4.24a3 3 0 0 1 4.24 0L59.48 52c.39.39.39 1.02 0 1.41Zm.7-2.12c.78.78.78 2.05 0 2.83-1.27 1.27-2.61.22-2.83 0l-3.76-3.76-5.57 5.57a.996.996 0 0 0 0 1.41c.39.39 1.02.39 1.42 0l4.62-4.62.71.71-4.62 4.62a.996.996 0 0 0 0 1.41c.39.39 1.02.39 1.42 0l4.62-4.62.71.71-4.62 4.62a.998.998 0 0 0 .705 1.702.997.997 0 0 0 .705-.292l4.62-4.62.71.71-4.62 4.62a.998.998 0 0 0 .705 1.702.997.997 0 0 0 .705-.292l8.32-8.34a3 3 0 0 0 0-4.24l-4.24-4.24a3.001 3.001 0 0 0-4.18-.06l4.47 4.47Z" fill="#BC3324"/>
</g></symbol><symbol id="home" viewBox="0 0 110 110"><g fill="none">
    <path fill="#1F1E1E" d="M0 0h110v110H0z"/>
    <path d="m63 51-6-5.26a3 3 0 0 0-4 0L47 51a3 3 0 0 0-1 2.26V62a3 3 0 0 0 3 3h12a3 3 0 0 0 3-3v-8.75A2.999 2.999 0 0 0 63 51Zm-6 12h-4v-5a1 1 0 0 1 1-1h2a1 1 0 0 1 1 1v5Zm5-1a1 1 0 0 1-1 1h-2v-5a3 3 0 0 0-3-3h-2a3 3 0 0 0-3 3v5h-2a1 1 0 0 1-1-1v-8.75a1 1 0 0 1 .34-.75l6-5.25a1 1 0 0 1 1.32 0l6 5.25a1 1 0 0 1 .34.75V62Z" fill="#BC3324"/>
    <path d="M62 62a1 1 0 0 1-1 1h-2v-5a3 3 0 0 0-3-3h-2a3 3 0 0 0-3 3v5h-2a1 1 0 0 1-1-1v-8.75a1 1 0 0 1 .34-.75l6-5.25a1 1 0 0 1 1.32 0l6 5.25a1 1 0 0 1 .34.75V62Z" fill="#BC3324"/>
</g></symbol><symbol id="information" viewBox="0 0 110 110"><g fill="none">
    <path fill="#1F1E1E" d="M0 0h110v110H0z"/>
    <path fill-rule="evenodd" clip-rule="evenodd" d="M55 66c6.075 0 11-4.925 11-11s-4.925-11-11-11-11 4.925-11 11 4.925 11 11 11Zm-1-6.6a1 1 0 0 1 1-1h.011a1 1 0 1 1 0 2H55a1 1 0 0 1-1-1Zm2-8.8a1 1 0 1 0-2 0V55a1 1 0 1 0 2 0v-4.4Z" fill="#BC3324"/>
</g></symbol><symbol id="LENNI" viewBox="0 0 1920 325"><g fill="none">
    <path d="M485.389 317.073V0H0v325h647.345v-7.927H485.389ZM675.453 325h200.745v-7.927H713.443V159.935h126.765v-7.926H713.443V7.927H876V0H675.453v325ZM941.896 325V8.393c34.39 0 141.564 13.989 149.554 194.907V325h37.99V0h-37.99v143.615c-9.59-48.027-28.39-82.998-57.18-108.177C998.68 3.73 958.291 0 941.896 0h-37.99v325h37.99ZM1207.45 325V8.393c34.39 0 141.56 13.989 149.56 194.907V325H1395V0h-37.99v143.615c-9.6-48.027-28.4-82.998-57.19-108.177C1264.23 3.73 1223.84 0 1207.45 0h-37.99v325h37.99ZM1473 0h-37.99v325H1920V0h-447Z" fill="#1F1E1E"/>
</g></symbol><symbol id="location" viewBox="0 0 110 110"><g fill="none">
    <path fill="#1F1E1E" d="M0 0h110v110H0z"/>
    <circle cx="55" cy="55" r="9" fill="#BC3324"/>
</g></symbol><symbol id="logo" viewBox="0 0 202 147"><g fill="none">
    <path fill="#1F1E1E" d="M0 0h147v147H0z"/>
    <path d="M39.965 72.439H26.633V50.032h-.032v-.033h-4.686V73h18.05v-.561ZM43.932 73h18.117v-.561H48.618V61.285h10.494v-.594H48.618V50.56h13.43v-.561H43.933V73ZM70.7 73V50.56c2.87 0 11.714 1.089 12.374 13.893V73h4.686V49.999h-4.686v10.329C81.655 54.19 77.167 49.999 70.7 49.999h-4.686V73H70.7ZM97.39 73V50.56c2.87 0 11.714 1.089 12.374 13.893V73h4.686V49.999h-4.686v10.329c-1.419-6.138-5.907-10.329-12.375-10.329h-4.686V73h4.686ZM119.393 73h4.686V49.999h-4.686V73Z" fill="#fff"/>
    <path fill="#BC3324" d="M81 92h121v42H81z"/>
    <path d="M108.922 124h.54l2.94-8.55h8.55l3.33 8.55h4.47l-8.1-20.91h-4.53l-7.2 20.91Zm7.5-20.25 4.35 11.19h-8.19l3.84-11.19ZM132.644 103.09V124h4.26v-7.23h5.07l4.89 7.2h4.86l-5.16-7.65c3-.78 5.28-2.64 5.28-6.81 0-5.22-3.81-6.87-8.25-6.87-4.68 0-6.03 3.51-6.69 7.41v-6.96h-4.26Zm5.43 4.38c.81-2.94 2.91-4.14 4.77-4.29 4.47-.42 4.65 2.43 4.65 6.33 0 6.33-3.36 6.75-6.24 6.75h-4.35s-.12-4.14 1.17-8.79ZM162.084 103.6l.03 20.4h4.26v-20.4h8.61v-.51h-21.51v.51h8.61Z" fill="#fff"/>
</g></symbol><symbol id="quote" viewBox="0 0 1920 308"><g fill="none">
    <path d="M-27.424 109V21.96h48V109h18.176V19.784H-45.6V109h18.176Zm78.949 33.664h18.176v-36.352c3.584 1.664 10.752 4.864 21.504 4.864 20.992 0 41.088-4.992 41.088-33.28 0-27.52-14.976-34.944-33.408-34.944-14.336 0-21.248 7.168-26.624 23.296-1.28 3.712-1.92 7.552-2.56 11.392V45H51.525v97.664Zm44.416-97.28c13.824 0 17.664 13.824 17.664 32.512 0 27.008-9.216 30.72-25.088 30.72-10.752 0-15.36-3.584-18.816-5.248.384-16.768 2.688-57.984 26.24-57.984Zm45.289 31.744c0 22.4 19.456 33.92 40.448 33.92 20.864 0 40.448-11.52 40.448-33.92 0-22.528-19.584-34.176-40.448-34.176-20.992 0-40.448 11.648-40.448 34.176ZM181.678 45c16 0 21.76 9.984 21.76 32.128 0 21.76-4.864 32-21.76 32-17.408 0-21.76-10.24-21.76-32 0-22.144 5.888-32.128 21.76-32.128Zm88.211 66.048c19.84 0 29.184-9.728 31.36-11.52l-1.024-1.28c-8.32 7.168-18.688 10.624-30.336 10.624-15.232 0-19.84-13.824-19.84-31.744 0-21.376 7.424-31.872 19.84-31.872 17.28 0 23.936 7.424 25.344 15.744l2.176-.512c-1.408-9.344-9.984-17.408-27.52-17.408-23.04 0-38.784 14.336-38.784 34.048 0 19.456 14.592 33.92 38.784 33.92Zm59.955-63.872V109h18.176V47.176h25.216V45H304.5v2.176h25.344Zm41.511 29.952c0 22.4 19.456 33.92 40.448 33.92 20.864 0 40.448-11.52 40.448-33.92 0-22.528-19.584-34.176-40.448-34.176-20.992 0-40.448 11.648-40.448 34.176ZM411.803 45c16 0 21.76 9.984 21.76 32.128 0 21.76-4.864 32-21.76 32-17.408 0-21.76-10.24-21.76-32 0-22.144 5.888-32.128 21.76-32.128Zm167.109 64c6.912.128 12.672 5.76 12.672 12.928 0 7.04-5.76 12.8-12.928 12.8-7.168 0-12.928-5.76-12.928-12.8h-2.048c0 8.192 6.656 14.976 14.976 14.976s14.976-6.784 14.976-14.976c0-7.68-5.248-13.952-13.056-14.976C571.744 82.888 565.6 68.936 556.384 45h-19.072l-12.16 35.328c-8.32 24.192-10.496 26.496-15.872 26.496V109h69.632Zm-61.056-4.992c2.56-4.096 5.376-11.52 9.344-22.912L538.592 48.2l22.784 58.752h-45.952c.768-.768 1.664-1.664 2.432-2.944Zm66.624-26.88c0 19.456 14.592 33.92 39.552 33.92 12.16 0 20.608-3.456 30.592-11.52l-1.152-1.408c-8.32 7.168-18.56 10.752-30.208 10.752-14.848 0-18.816-13.312-19.584-25.856h49.28c0-21.248-3.456-39.936-29.696-39.936-20.224 0-38.784 11.904-38.784 34.048Zm19.072 3.84v-3.712c0-13.568 3.072-32.128 19.712-32.128 23.552 0 27.52 16.64 27.52 35.84h-47.232ZM659.215 109h2.304l20.608-60.928L705.807 109h19.072l-24.832-64h-19.072l-21.76 64Zm101.723 2.048c19.968 0 26.112-15.872 28.928-32.64l.256-1.536V109h18.176V68.936c0-22.144-19.2-25.856-34.56-25.856-23.296 0-33.536 8.32-37.632 14.848l13.44 6.4c-10.624 2.304-18.816 9.6-18.816 21.376 0 20.992 13.056 25.344 30.208 25.344Zm4.096-45.824h24.32c-1.408 18.432-4.992 43.904-28.544 43.904-7.552 0-11.392-5.376-11.392-22.144 0-16 5.248-21.76 15.616-21.76Zm-10.368-1.792c0-3.072 4.608-18.432 18.432-18.432 16.128 0 16.512 4.992 16.512 18.048h-28.8c-2.176 0-4.224.128-6.144.384ZM821.15 109h18.176c4.864 0 16.896-1.408 27.008-9.984 7.936-6.784 12.672-16.256 15.488-28.928V109h18.176V45h-18.176v8.32c-2.432 49.024-32.512 53.376-42.496 53.504V45H821.15v64Zm39.424-73.6c5.248 0 9.472-4.224 9.472-9.344h-2.176c0 3.968-3.2 7.296-7.296 7.296-3.968 0-7.296-3.328-7.296-7.296h-2.048c0 5.12 4.224 9.344 9.344 9.344Zm71.145 11.776V109h18.176V47.176h25.216V45h-68.736v2.176h25.344Zm41.511 29.952c0 19.456 14.592 33.92 39.55 33.92 12.16 0 20.61-3.456 30.59-11.52l-1.15-1.408c-8.32 7.168-18.56 10.752-30.21 10.752-14.844 0-18.812-13.312-19.58-25.856h49.28c0-21.248-3.46-39.936-29.7-39.936-20.22 0-38.78 11.904-38.78 34.048Zm19.072 3.84v-3.712c0-13.568 3.072-32.128 19.708-32.128 23.56 0 27.52 16.64 27.52 35.84h-47.228Zm67.378 30.208c3.33 0 6.66-1.92 8.45-4.48.13 4.608-1.66 8.832-6.14 10.752a11.1 11.1 0 0 1-4.1.768c-2.18 0-4.48-.64-6.53-1.792l-1.02 1.92c2.3 1.28 4.86 1.92 7.55 1.92 5.38 0 10.24-3.2 11.78-8.576.89-3.072 1.02-8.448.76-11.392-.64-6.144-4.99-10.112-10.75-10.112s-10.49 4.608-10.49 10.496c0 5.632 4.99 10.496 10.49 10.496Zm97.59-22.144c16.51 0 22.53-9.6 25.99-27.648V109h18.17V45h-18.17c0 3.328.12 7.552-3.46 22.144-3.84 15.36-11.26 19.712-22.66 19.712-7.55 0-8.06-4.736-8.06-18.688V45h-18.3v16.256c0 19.328 9.34 27.776 26.49 27.776Zm75.95-41.856V109h18.18V47.176h25.21V45h-68.73v2.176h25.34Zm41.51 29.952c0 22.4 19.46 33.92 40.45 33.92 20.86 0 40.45-11.52 40.45-33.92 0-22.528-19.59-34.176-40.45-34.176-20.99 0-40.45 11.648-40.45 34.176ZM1315.18 45c16 0 21.76 9.984 21.76 32.128 0 21.76-4.87 32-21.76 32-17.41 0-21.76-10.24-21.76-32 0-22.144 5.89-32.128 21.76-32.128Zm120.77 64V76.36h42.24V109h18.18V45h-18.18v29.184h-42.24V45h-18.17v64h18.17Zm73.2 33.664h18.18v-36.352c3.58 1.664 10.75 4.864 21.5 4.864 20.99 0 41.09-4.992 41.09-33.28 0-27.52-14.98-34.944-33.41-34.944-14.34 0-21.25 7.168-26.62 23.296-1.28 3.712-1.92 7.552-2.56 11.392V45h-18.18v97.664Zm44.42-97.28c13.82 0 17.66 13.824 17.66 32.512 0 27.008-9.22 30.72-25.09 30.72-10.75 0-15.36-3.584-18.81-5.248.38-16.768 2.68-57.984 26.24-57.984Zm75.49 65.664c19.97 0 26.12-15.872 28.93-32.64l.26-1.536V109h18.17V68.936c0-22.144-19.2-25.856-34.56-25.856-23.29 0-33.53 8.32-37.63 14.848l13.44 6.4c-10.62 2.304-18.81 9.6-18.81 21.376 0 20.992 13.05 25.344 30.2 25.344Zm4.1-45.824h24.32c-1.41 18.432-4.99 43.904-28.54 43.904-7.56 0-11.4-5.376-11.4-22.144 0-16 5.25-21.76 15.62-21.76Zm-10.37-1.792c0-3.072 4.61-18.432 18.43-18.432 16.13 0 16.52 4.992 16.52 18.048h-28.8c-2.18 0-4.23.128-6.15.384ZM1728.57 109c15.49 0 32.51.384 32.51-17.408 0-12.8-9.21-16.128-20.35-17.152 7.04-1.536 15.23-5.632 15.23-15.488 0-13.952-13.18-15.872-26.62-15.872-14.72 0-20.48 8.576-22.02 14.08V45h-18.04v64h39.29Zm-21.25-33.28h19.08c10.88 0 15.61 3.072 15.61 16 0 15.104-7.29 15.104-20.35 15.104h-14.34V75.72Zm0-11.264c1.41-9.6 7.56-19.072 19.97-19.072 7.55 0 10.24 2.432 10.24 13.696 0 13.056-5.12 14.464-12.67 14.464h-17.54v-9.088ZM1772.03 109h18.17c22.53 0 37.63-16.64 42.5-38.912V109h18.17V45h-18.17v8.192c-2.44 49.024-32.51 53.632-42.5 53.632V45h-18.17v64Zm110.56-61.824V109h18.18V47.176h25.22V45h-68.74v2.176h25.34Zm80.3 63.872c19.84 0 29.18-9.728 31.36-11.52l-1.02-1.28c-8.32 7.168-18.69 10.624-30.34 10.624-15.23 0-19.84-13.824-19.84-31.744 0-21.376 7.42-31.872 19.84-31.872 17.28 0 23.94 7.424 25.34 15.744l2.18-.512c-1.41-9.344-9.98-17.408-27.52-17.408-23.04 0-38.78 14.336-38.78 34.048 0 19.456 14.59 33.92 38.78 33.92Zm68.66-26.368-6.4 16.896c-1.41 3.84-5.12 6.528-9.22 6.528h-.51c-5.38 0-9.6-4.992-9.6-10.24 0-2.688 1.02-5.12 2.82-7.04l-1.54-1.536c-2.18 2.304-3.46 5.376-3.46 8.576 0 6.4 5.12 12.288 11.78 12.288h.51c4.99 0 9.47-3.072 11.27-7.808l6.65-17.664h22.66c.51 7.04.51 19.712.51 24.32h18.43V45h-18.43v21.888c-.38-5.376-3.07-24.064-23.3-24.064-18.17 0-31.74 5.76-31.74 20.224 0 14.976 7.68 21.632 29.57 21.632Zm3.2-39.936c20.48 0 21.12 23.936 21.5 34.432l.13 3.328h-19.58c-11.01 0-16.39-4.352-16.39-18.688 0-14.592 5.63-19.072 14.34-19.072Zm60.06 66.432c3.32 0 6.65-1.92 8.44-4.48.13 4.608-1.66 8.832-6.14 10.752a11.1 11.1 0 0 1-4.1.768c-2.17 0-4.48-.64-6.52-1.792l-1.03 1.92c2.31 1.28 4.87 1.92 7.55 1.92 5.38 0 10.24-3.2 11.78-8.576.9-3.072 1.02-8.448.77-11.392-.64-6.144-4.99-10.112-10.75-10.112s-10.5 4.608-10.5 10.496c0 5.632 4.99 10.496 10.5 10.496ZM746.688 265.048c19.968 0 26.112-15.872 28.928-32.64l.256-1.536V263h18.176v-40.064c0-22.144-19.2-25.856-34.56-25.856-23.296 0-33.536 8.32-37.632 14.848l13.44 6.4c-10.624 2.304-18.816 9.6-18.816 21.376 0 20.992 13.056 25.344 30.208 25.344Zm4.096-45.824h24.32c-1.408 18.432-4.992 43.904-28.544 43.904-7.552 0-11.392-5.376-11.392-22.144 0-16 5.248-21.76 15.616-21.76Zm-10.368-1.792c0-3.072 4.608-18.432 18.432-18.432 16.128 0 16.512 4.992 16.512 18.048h-28.8c-2.176 0-4.224.128-6.144.384ZM858.15 263h18.176v-60.544l26.88 34.944 26.88-34.944V263h18.176v-64H929.83l-26.624 34.944L876.454 199H858.15v64Zm102.875-64v64h33.664c21.631 0 39.041-2.56 39.041-24.832 0-19.712-19.33-24.576-35.585-24.576h-18.944V199h-18.176Zm18.176 61.824v-45.056h12.928c11.391 0 22.781 4.352 22.781 22.4 0 18.176-8.44 22.656-26.237 22.656h-9.472ZM1039.49 199v64h18.18v-64h-18.18Zm121.58 64c15.49 0 32.51.384 32.51-17.408 0-12.8-9.21-16.128-20.35-17.152 7.04-1.536 15.23-5.632 15.23-15.488 0-13.952-13.18-15.872-26.62-15.872-14.72 0-20.48 8.576-22.02 14.08V199h-18.04v64h39.29Zm-21.25-33.28h19.08c10.88 0 15.61 3.072 15.61 16 0 15.104-7.29 15.104-20.35 15.104h-14.34V229.72Zm0-11.264c1.41-9.6 7.56-19.072 19.97-19.072 7.55 0 10.24 2.432 10.24 13.696 0 13.056-5.12 14.464-12.67 14.464h-17.54v-9.088Zm92.99 46.592c19.97 0 26.12-15.872 28.93-32.64l.26-1.536V263h18.17v-40.064c0-22.144-19.2-25.856-34.56-25.856-23.29 0-33.53 8.32-37.63 14.848l13.44 6.4c-10.62 2.304-18.81 9.6-18.81 21.376 0 20.992 13.05 25.344 30.2 25.344Zm4.1-45.824h24.32c-1.41 18.432-4.99 43.904-28.54 43.904-7.56 0-11.4-5.376-11.4-22.144 0-16 5.25-21.76 15.62-21.76Zm-10.37-1.792c0-3.072 4.61-18.432 18.43-18.432 16.13 0 16.52 4.992 16.52 18.048h-28.8c-2.18 0-4.23.128-6.15.384ZM1293.03 263h18.17v-60.544l26.88 34.944 26.88-34.944V263h18.18v-64h-18.43l-26.63 34.944L1311.33 199h-18.3v64Zm154.12-64v64h18.18v-61.824h38.52V263h18.18v-64h-74.88Zm85.71 32.128c0 22.4 19.45 33.92 40.44 33.92 20.87 0 40.45-11.52 40.45-33.92 0-22.528-19.58-34.176-40.45-34.176-20.99 0-40.44 11.648-40.44 34.176ZM1573.3 199c16 0 21.76 9.984 21.76 32.128 0 21.76-4.86 32-21.76 32-17.4 0-21.76-10.24-21.76-32 0-22.144 5.89-32.128 21.76-32.128Zm51.35 64h18.18v-60.544l26.88 34.944 26.88-34.944V263h18.17v-64h-18.43l-26.62 34.944L1642.95 199h-18.3v64Zm100.96-31.872c0 22.4 19.45 33.92 40.44 33.92 20.87 0 40.45-11.52 40.45-33.92 0-22.528-19.58-34.176-40.45-34.176-20.99 0-40.44 11.648-40.44 34.176ZM1766.05 199c16 0 21.76 9.984 21.76 32.128 0 21.76-4.86 32-21.76 32-17.4 0-21.76-10.24-21.76-32 0-22.144 5.89-32.128 21.76-32.128Zm46.93 64h18.69c0-22.144 6.01-32.768 21.76-32.768h6.4V263H1878v-32.768h6.15c15.74 0 21.76 10.624 21.76 32.768h18.69c0-21.248-15.49-34.944-37.51-34.944v-4.352c0-11.776.9-24.192 16.39-24.192 6.14 0 11 4.864 11 11.008 0 6.016-4.86 11.008-11 11.008v2.176c7.29 0 13.18-5.888 13.18-13.184 0-7.296-5.89-13.184-13.18-13.184-18.05 0-18.56 14.976-18.56 28.544v2.176H1878V167.64h-18.17v60.416h-7.04v-2.176c0-13.568-.64-28.544-18.69-28.544-7.17 0-13.18 5.888-13.18 13.184 0 7.296 6.01 13.184 13.18 13.184v-2.176c-6.02 0-11.01-4.992-11.01-11.008 0-6.144 4.99-11.008 11.01-11.008 15.49 0 16.38 12.416 16.38 24.192v4.352c-21.88 0-37.5 13.696-37.5 34.944Zm119.38-31.872c0 19.456 14.59 33.92 39.55 33.92 12.16 0 20.6-3.456 30.59-11.52l-1.15-1.408c-8.32 7.168-18.56 10.752-30.21 10.752-14.85 0-18.82-13.312-19.58-25.856h49.28c0-21.248-3.46-39.936-29.7-39.936-20.22 0-38.78 11.904-38.78 34.048Zm19.07 3.84v-3.712c0-13.568 3.07-32.128 19.71-32.128 23.55 0 27.52 16.64 27.52 35.84h-47.23ZM2012.15 263h18.18v-60.544l26.88 34.944 26.88-34.944V263h18.17v-64h-18.43l-26.62 34.944L2030.45 199h-18.3v64Z" fill="#1F1E1E"/>
</g></symbol><symbol id="red_rect-vert" viewBox="0 0 4 198"><g fill="none">
    <path fill="#BC3324" d="M4 198H0V0h4z"/>
</g></symbol><symbol id="red_rect" viewBox="0 0 24 24"><g fill="none">
    <path fill="#A51505" d="M0 0h24v24H0z"/>
</g></symbol><symbol id="show-hide" viewBox="0 0 128 133"><g fill="none">
    <path d="M42.787 81a29.836 29.836 0 0 0-8.21 15.297 29.76 29.76 0 0 0 1.707 17.261 29.903 29.903 0 0 0 11.049 13.407A30.087 30.087 0 0 0 64 132a30.087 30.087 0 0 0 16.667-5.035 29.903 29.903 0 0 0 11.05-13.407 29.76 29.76 0 0 0 1.707-17.262A29.836 29.836 0 0 0 85.214 81" stroke="#1F1E1E" stroke-width="2" stroke-linecap="round"/>
    <g clip-path="url(#a)" stroke="#1F1E1E" stroke-width="2" stroke-linecap="round" stroke-linejoin="round">
        <path d="M64 46v60M71 99l-7 7-7-7"/>
    </g>
    <path d="M8.984 18V6.578h8.774V18h-1.86V8.172H10.86V18H8.984Zm19.266-4.344c0 .719-.094 1.357-.281 1.914a3.834 3.834 0 0 1-.82 1.414c-.36.38-.792.672-1.297.875-.506.198-1.076.297-1.711.297a4.359 4.359 0 0 1-1.633-.297 3.725 3.725 0 0 1-1.29-.875 4.01 4.01 0 0 1-.835-1.414c-.198-.557-.297-1.195-.297-1.914 0-.953.164-1.76.492-2.422A3.506 3.506 0 0 1 22 9.711c.615-.349 1.346-.524 2.195-.524.797 0 1.5.175 2.11.524.61.349 1.086.857 1.43 1.523.343.667.515 1.474.515 2.422Zm-6.273 0c0 .63.075 1.17.226 1.617.156.448.396.792.719 1.032.323.234.74.351 1.25.351s.927-.117 1.25-.351c.323-.24.56-.584.71-1.032.152-.447.227-.986.227-1.617 0-.63-.075-1.164-.226-1.601-.151-.443-.388-.779-.711-1.008-.323-.235-.742-.352-1.258-.352-.76 0-1.315.255-1.664.766-.349.51-.523 1.242-.523 2.195Zm13.742-4.304h2.023l-3.578 4.156L38.047 18H35.93l-3.727-4.39V18H30.36V9.352h1.844v4.195l3.516-4.195Zm7.125-.165c1.093 0 1.919.243 2.476.727.563.484.844 1.24.844 2.266V18H44.86l-.351-1.227h-.063c-.245.313-.497.57-.758.774-.26.203-.562.354-.906.453-.338.104-.752.156-1.242.156-.516 0-.977-.093-1.383-.281a2.198 2.198 0 0 1-.96-.875c-.235-.39-.352-.885-.352-1.484 0-.891.33-1.56.992-2.008.667-.448 1.672-.695 3.016-.742l1.5-.055v-.453c0-.6-.141-1.026-.422-1.281-.276-.256-.667-.383-1.172-.383-.433 0-.852.062-1.258.187a8.887 8.887 0 0 0-1.188.461l-.593-1.297a6.658 6.658 0 0 1 1.437-.547 6.689 6.689 0 0 1 1.688-.21Zm1.5 4.68-1.117.04c-.917.03-1.56.187-1.93.468-.37.281-.555.667-.555 1.156 0 .427.128.74.383.938.255.192.591.289 1.008.289.635 0 1.161-.18 1.578-.54.422-.364.633-.898.633-1.6v-.75Zm7.078-4.68c.635 0 1.206.086 1.71.258.511.167.915.42 1.212.758.297.339.445.76.445 1.266 0 .52-.151.937-.453 1.25-.297.307-.7.528-1.211.664v.07c.36.089.685.216.977.383.291.161.523.38.695.656.177.271.266.62.266 1.047a2.2 2.2 0 0 1-.43 1.32c-.281.396-.714.711-1.297.946-.583.234-1.326.351-2.227.351-.432 0-.843-.023-1.234-.07a8.036 8.036 0 0 1-1.055-.18 4.476 4.476 0 0 1-.828-.297v-1.578c.36.172.794.328 1.305.469.51.135 1.057.203 1.64.203.433 0 .823-.039 1.172-.117.355-.083.633-.219.836-.406.209-.188.313-.438.313-.75a.978.978 0 0 0-.274-.711c-.182-.188-.455-.326-.82-.414-.364-.094-.825-.14-1.383-.14H49.75v-1.352h.906c.766 0 1.365-.084 1.797-.25.438-.172.656-.47.656-.891a.863.863 0 0 0-.46-.797c-.308-.177-.78-.266-1.415-.266-.437 0-.87.05-1.297.149-.427.094-.854.229-1.28.406l-.579-1.351a8.824 8.824 0 0 1 3.344-.625Zm9.016 0c1.093 0 1.919.243 2.476.727.563.484.844 1.24.844 2.266V18h-1.305l-.351-1.227h-.063a4.46 4.46 0 0 1-.758.774c-.26.203-.562.354-.906.453-.339.104-.753.156-1.242.156-.516 0-.977-.093-1.383-.281a2.197 2.197 0 0 1-.96-.875c-.235-.39-.352-.885-.352-1.484 0-.891.33-1.56.992-2.008.666-.448 1.672-.695 3.015-.742l1.5-.055v-.453c0-.6-.14-1.026-.422-1.281-.276-.256-.666-.383-1.171-.383-.433 0-.852.062-1.258.187a8.888 8.888 0 0 0-1.188.461l-.593-1.297a6.659 6.659 0 0 1 1.437-.547 6.689 6.689 0 0 1 1.688-.21Zm1.5 4.68-1.118.04c-.916.03-1.56.187-1.93.468-.37.281-.554.667-.554 1.156 0 .427.128.74.383.938.255.192.59.289 1.008.289.635 0 1.161-.18 1.578-.54.422-.364.633-.898.633-1.6v-.75Zm10.921-3.07h-2.843V18h-1.829v-7.203H65.36V9.352h7.5v1.445Zm3.516 2.008h2.148c.813 0 1.485.093 2.016.28.537.183.938.46 1.203.83.266.369.399.832.399 1.39 0 .547-.125 1.023-.375 1.43-.25.4-.641.713-1.172.937-.526.219-1.214.328-2.063.328h-4V9.352h1.844v3.453Zm3.922 2.547c0-.433-.162-.737-.484-.915-.323-.182-.784-.273-1.383-.273h-2.055v2.484h2.07c.547 0 .993-.099 1.336-.296.344-.204.516-.537.516-1Zm11.476-6.165c.771 0 1.433.16 1.985.477.552.318.976.768 1.273 1.352.297.583.446 1.28.446 2.093v.985h-5.774c.021.838.245 1.484.672 1.937.432.453 1.037.68 1.813.68.552 0 1.046-.052 1.484-.156a8.24 8.24 0 0 0 1.367-.477v1.492a5.976 5.976 0 0 1-1.32.446c-.448.093-.985.14-1.61.14-.849 0-1.596-.164-2.242-.492a3.601 3.601 0 0 1-1.508-1.484c-.359-.657-.539-1.472-.539-2.446 0-.968.164-1.791.493-2.468.328-.678.789-1.193 1.382-1.547.594-.354 1.287-.531 2.078-.531Zm0 1.383c-.578 0-1.046.188-1.406.563-.354.375-.562.924-.625 1.648h3.938a3.027 3.027 0 0 0-.22-1.148 1.665 1.665 0 0 0-.624-.781c-.276-.188-.63-.282-1.063-.282Zm18.016-1.218v7.234h1.25v4.453h-1.727V18H97.547V9.352h1.836v7.203h3.359V9.352h1.844v7.203h3.367V9.352h1.836Zm6.266-.165c.771 0 1.432.16 1.984.477.552.318.977.768 1.273 1.352.297.583.446 1.28.446 2.093v.985h-5.774c.021.838.245 1.484.672 1.937.433.453 1.037.68 1.813.68.552 0 1.047-.052 1.484-.156.443-.11.899-.268 1.367-.477v1.492a5.967 5.967 0 0 1-1.32.446 7.96 7.96 0 0 1-1.609.14c-.849 0-1.597-.164-2.243-.492a3.6 3.6 0 0 1-1.507-1.484c-.36-.657-.539-1.472-.539-2.446 0-.968.164-1.791.492-2.468.328-.678.789-1.193 1.383-1.547.593-.354 1.286-.531 2.078-.531Zm0 1.383c-.578 0-1.047.188-1.407.563-.354.375-.562.924-.625 1.648h3.938a3.017 3.017 0 0 0-.219-1.148 1.665 1.665 0 0 0-.625-.781c-.276-.188-.63-.282-1.062-.282Z" fill="#1F1E1E"/>
    
</g></symbol><symbol id="social" viewBox="0 0 160 58"><g fill="none">
    <path fill-rule="evenodd" clip-rule="evenodd" d="M29 58c16.016 0 29-12.984 29-29S45.016 0 29 0 0 12.984 0 29s12.984 29 29 29Zm-3.535-32.535a5 5 0 1 1 7.07 7.07 5 5 0 0 1-7.07-7.07Zm1.238 5.83a3.248 3.248 0 1 0 4.594-4.593 3.248 3.248 0 0 0-4.594 4.594ZM34 25a1 1 0 1 0 0-2 1 1 0 0 0 0 2Zm3.317-4.323a5.106 5.106 0 0 1 1.153 1.767c.297.787.455 1.618.468 2.459.062 1.06.062 1.405.062 4.114 0 2.709-.014 3.047-.062 4.114a7.296 7.296 0 0 1-.466 2.424 5.115 5.115 0 0 1-2.924 2.92 7.355 7.355 0 0 1-2.428.464C32.06 39 31.712 39 29 39s-3.05-.014-4.12-.061a7.321 7.321 0 0 1-2.427-.499 5.12 5.12 0 0 1-2.925-2.919 7.307 7.307 0 0 1-.466-2.425C19 32.035 19 31.69 19 28.982c0-2.709.014-3.047.062-4.114a7.293 7.293 0 0 1 .465-2.424 5.1 5.1 0 0 1 2.925-2.918 7.287 7.287 0 0 1 2.425-.466c1.061-.06 1.409-.06 4.12-.06 2.713 0 3.052.013 4.121.06.83.017 1.65.174 2.428.466a5.116 5.116 0 0 1 1.77 1.15Zm-.545 14.209c.221-.6.338-1.233.346-1.872v.001h.012c.047-1.06.047-1.35.047-4.052 0-2.702-.012-2.998-.06-4.053a5.624 5.624 0 0 0-.345-1.85 3.316 3.316 0 0 0-1.901-1.899 5.516 5.516 0 0 0-1.855-.345c-1.074-.06-1.352-.06-4.058-.06-2.707 0-3.003.013-4.06.06a5.571 5.571 0 0 0-1.853.345 3.314 3.314 0 0 0-1.91 1.899 5.579 5.579 0 0 0-.345 1.87c-.058 1.075-.058 1.351-.058 4.053s.01 2.999.058 4.052c.01.632.127 1.258.346 1.851a3.309 3.309 0 0 0 1.909 1.897c.593.22 1.22.337 1.853.345 1.076.061 1.352.061 4.06.061 2.705 0 3.003-.012 4.058-.06a5.544 5.544 0 0 0 1.855-.346 3.32 3.32 0 0 0 1.901-1.897ZM160 29c0 16.016-12.984 29-29 29s-29-12.984-29-29 12.984-29 29-29 29 12.984 29 29Zm-35.289-10A3.726 3.726 0 0 0 121 22.71v12.58a3.727 3.727 0 0 0 3.711 3.71h12.578A3.726 3.726 0 0 0 141 35.29V22.71a3.727 3.727 0 0 0-3.711-3.71h-12.578Zm12.578 1.818c1.055 0 1.893.838 1.893 1.893v12.578a1.881 1.881 0 0 1-1.893 1.893h-12.578a1.878 1.878 0 0 1-1.752-1.167 1.884 1.884 0 0 1-.141-.726V22.711c0-1.055.838-1.893 1.893-1.893h12.578ZM136.327 26c.398 0 .481.172.398.406h-.001c-.166.644-1.766 2.541-1.766 2.541-.139.188-.195.281 0 .492.069.08.215.201.382.34.173.142.367.302.522.456.564.535.989.985 1.108 1.295.108.312-.08.47-.455.47h-1.313c-.352 0-.529-.166-.911-.524a14.711 14.711 0 0 0-.626-.562c-.779-.632-1.113-.714-1.308-.714-.264 0-.343.063-.343.379v.991c0 .272-.103.43-.938.43-1.391 0-2.919-.711-4.004-2.022-1.627-1.92-2.072-3.373-2.072-3.665 0-.164.075-.313.45-.313h1.313c.336 0 .462.123.586.43.643 1.574 1.725 2.95 2.17 2.95.167 0 .244-.064.244-.421V27.33a1.138 1.138 0 0 0-.365-.812c-.088-.091-.157-.163-.157-.265 0-.124.126-.254.334-.254h2.064c.278 0 .37.125.37.406v2.19c0 .234.126.316.209.316.167 0 .306-.082.612-.34.946-.89 1.613-2.26 1.613-2.26.084-.163.238-.312.572-.312h1.312Z" fill="#1F1E1E"/>
</g></symbol><symbol id="star" viewBox="0 0 110 110"><g fill="none">
    <path fill="#1F1E1E" d="M0 0h110v110H0z"/>
    <path d="M64.663 51.772a1 1 0 0 1 .33.462 1 1 0 0 1-.32 1.02l-4.13 4 1 5.68a1 1 0 0 1-.99 1.19.93.93 0 0 1-.46-.12l-5.1-2.68-5.12 2.67a1 1 0 0 1-1.45-1.07l1-5.68-4.13-4a1 1 0 0 1-.25-1 1 1 0 0 1 .81-.68l5.69-.84 2.55-5.16a1 1 0 0 1 1.8 0l2.55 5.17 5.69.83a1 1 0 0 1 .53.208Z" fill="#BC3324"/>
</g></symbol><symbol id="user" viewBox="0 0 24 24"><g fill="none">
    <path d="M13.3 12.22A4.92 4.92 0 0 0 15 8.5a5 5 0 0 0-10 0 4.92 4.92 0 0 0 1.7 3.72A8 8 0 0 0 2 19.5a1 1 0 1 0 2 0 6 6 0 1 1 12 0 1 1 0 0 0 2 0 8 8 0 0 0-4.7-7.28ZM10 11.5a3 3 0 1 1 0-6 3 3 0 0 1 0 6Zm11.71-2.37a1 1 0 0 0-1.42 0l-2 2-.62-.63a1.002 1.002 0 0 0-1.71.705 1 1 0 0 0 .29.705l1.34 1.34a1 1 0 0 0 1.41 0l2.67-2.67a1 1 0 0 0 .04-1.45Z" fill="#1F1E1E"/>
</g></symbol><symbol id="white_ellipse" viewBox="0 0 24 24"><g fill="none">
    <circle cx="12" cy="12" r="11.5" fill="#BFBFBF" stroke="#BFBFBF"/>
</g></symbol><symbol id="x" viewBox="0 0 60 60"><g fill="none">
    <circle cx="30" cy="30" r="30" fill="#1F1E1E"/>
    <path d="M36 24 24 36M24 24l12 12" stroke="#fff" stroke-width="2" stroke-linecap="round" stroke-linejoin="round"/>
</g></symbol><symbol id="&#x43a;&#x430;&#x440;&#x442;&#x430;_&#x437;&#x430;&#x432;&#x435;&#x434;&#x435;&#x43d;&#x438;&#x44f;" viewBox="0 0 780 399"><g fill="none">
    <path d="M462 82.5c0 38.936-31.564 70.5-70.5 70.5S321 121.436 321 82.5 352.564 12 391.5 12 462 43.564 462 82.5Z" fill="#1F1E1E"/>
    <path d="M362.453 89h-1.867v-9.82h-3.359v-1.602h8.585v1.602h-3.359V89Zm10.328 0-.367-1.203h-.062c-.417.526-.836.885-1.258 1.078-.422.188-.964.281-1.625.281-.849 0-1.513-.229-1.992-.687-.474-.459-.711-1.107-.711-1.946 0-.89.33-1.562.992-2.015.661-.453 1.669-.7 3.023-.742l1.492-.047v-.461c0-.552-.13-.964-.39-1.235-.255-.276-.654-.414-1.195-.414-.443 0-.868.066-1.274.196s-.797.283-1.172.46l-.594-1.312c.469-.245.982-.43 1.54-.555a6.944 6.944 0 0 1 1.578-.195c1.099 0 1.927.24 2.484.719.562.479.844 1.232.844 2.258V89h-1.313Zm-2.734-1.25c.667 0 1.2-.185 1.601-.555.407-.375.61-.898.61-1.57v-.75l-1.11.047c-.864.031-1.494.177-1.89.437-.391.256-.586.649-.586 1.18 0 .385.114.685.344.898.229.209.573.313 1.031.313Zm8.445-7.39v3.468h4.07V80.36h1.836V89h-1.836v-3.727h-4.07V89h-1.836v-8.64h1.836Zm16.235 7.218h1.25v4.461h-1.727V89h-7.219v-8.64h1.836v7.187h4.024v-7.188h1.836v7.22Zm10.375-7.219V89h-1.844v-7.188h-3.875V89h-1.836v-8.64h7.555Zm10.296 4.305c0 1.412-.362 2.513-1.086 3.305-.723.791-1.731 1.187-3.023 1.187-.807 0-1.521-.182-2.141-.547a3.612 3.612 0 0 1-1.429-1.57c-.334-.682-.5-1.474-.5-2.375 0-1.401.359-2.495 1.078-3.281.719-.787 1.732-1.18 3.039-1.18 1.25 0 2.24.404 2.969 1.211.729.802 1.093 1.885 1.093 3.25Zm-6.289 0c0 1.995.737 2.992 2.211 2.992 1.459 0 2.188-.997 2.188-2.992 0-1.974-.735-2.96-2.203-2.96-.771 0-1.331.254-1.68.765-.344.51-.516 1.242-.516 2.195ZM424.617 89h-1.851v-7.203h-2.383c-.146 1.854-.344 3.302-.594 4.344-.245 1.041-.568 1.802-.969 2.28-.396.48-.911.72-1.547.72-.401 0-.737-.058-1.007-.172V87.53c.192.073.385.11.578.11.531 0 .948-.597 1.25-1.79.307-1.197.547-3.028.718-5.492h5.805V89Z" fill="#fff"/>
    <path opacity=".01" fill="#DEDEDE" d="M15 0h127v93H15z"/>
    <path d="M110.5 65V.5h31v92h-126v-27h95V65Z" stroke="#1F1E1E"/>
    <path d="M121.199 85h-3.916v-7.773c0-.352.003-.74.01-1.163.013-.423.029-.804.049-1.142a6.41 6.41 0 0 1-.479.517c-.143.144-.283.277-.42.4l-1.621 1.339-2.002-2.461 4.903-3.994h3.476V85Zm13.535-7.12c0 1.147-.091 2.172-.273 3.077-.182.899-.475 1.663-.879 2.295A3.929 3.929 0 0 1 132 84.697c-.658.332-1.465.498-2.422.498-1.191 0-2.168-.29-2.93-.869-.761-.586-1.324-1.422-1.689-2.51-.358-1.093-.537-2.405-.537-3.935 0-1.543.163-2.862.488-3.955.332-1.1.876-1.944 1.631-2.53.755-.585 1.768-.878 3.037-.878 1.192 0 2.165.293 2.92.879.762.579 1.325 1.419 1.69 2.519.364 1.094.546 2.415.546 3.965Zm-6.474 0c0 .932.032 1.713.097 2.345.072.631.202 1.106.391 1.425.195.313.472.47.83.47a.903.903 0 0 0 .82-.47c.189-.319.319-.79.391-1.416.072-.631.107-1.416.107-2.353 0-.944-.035-1.732-.107-2.363-.072-.632-.202-1.107-.391-1.426-.188-.326-.462-.489-.82-.489-.358 0-.635.163-.83.489-.189.319-.319.794-.391 1.426-.065.631-.097 1.419-.097 2.363Z" fill="#1F1E1E"/>
    <circle cx="27" cy="50" r="11.5" stroke="#1F1E1E"/>
    <circle cx="61" cy="50" r="11.5" stroke="#1F1E1E"/>
    <circle cx="94" cy="50" r="11.5" stroke="#1F1E1E"/>
    <circle cx="94" cy="16" r="11.5" stroke="#1F1E1E"/>
    <path opacity=".01" fill="#DEDEDE" d="M685 4h95v121h-95z"/>
    <path stroke="#1F1E1E" d="M712.5 4.5h40v93h-40z"/>
    <path d="M737.957 60h-10.361v-2.54l3.486-3.525c.996-1.041 1.647-1.75 1.953-2.128.306-.385.518-.713.635-.987.124-.273.185-.56.185-.86 0-.37-.12-.663-.361-.878-.241-.215-.579-.322-1.015-.322-.45 0-.905.13-1.368.39-.455.254-.973.632-1.552 1.133l-2.12-2.48c.736-.658 1.355-1.127 1.856-1.406a6.519 6.519 0 0 1 1.631-.655 8.132 8.132 0 0 1 1.992-.224c.924 0 1.748.162 2.471.488.729.325 1.292.79 1.689 1.396.404.6.606 1.273.606 2.022 0 .56-.072 1.077-.215 1.553a5.443 5.443 0 0 1-.645 1.406 9.645 9.645 0 0 1-1.172 1.445c-.481.508-1.513 1.471-3.095 2.89v.098h5.4V60Z" fill="#1F1E1E"/>
    <circle cx="697" cy="16" r="11.5" stroke="#1F1E1E"/>
    <circle cx="768" cy="17" r="11.5" stroke="#1F1E1E"/>
    <circle cx="697" cy="49" r="11.5" stroke="#1F1E1E"/>
    <circle cx="768" cy="50" r="11.5" stroke="#1F1E1E"/>
    <circle cx="697" cy="82" r="11.5" stroke="#1F1E1E"/>
    <circle cx="768" cy="83" r="11.5" stroke="#1F1E1E"/>
    <circle cx="733" cy="113" r="11.5" stroke="#1F1E1E"/>
    <path opacity=".01" fill="#DEDEDE" d="M685 185h95v121h-95z"/>
    <path stroke="#1F1E1E" d="M712.5 185.5h40v93h-40z"/>
    <path d="M737.479 229.818c0 .886-.271 1.647-.811 2.286-.54.631-1.322 1.09-2.344 1.376v.059c2.383.3 3.574 1.426 3.574 3.379 0 1.328-.527 2.373-1.582 3.135-1.048.761-2.506 1.142-4.375 1.142a12.86 12.86 0 0 1-2.138-.166 11.1 11.1 0 0 1-2.119-.605v-3.203a8.709 8.709 0 0 0 1.904.713c.651.149 1.25.224 1.797.224.846 0 1.461-.117 1.845-.351.391-.241.586-.616.586-1.123 0-.391-.101-.691-.302-.899-.202-.215-.528-.374-.977-.478-.449-.111-1.035-.166-1.758-.166h-.879v-2.901h.899c1.959 0 2.939-.501 2.939-1.504 0-.377-.146-.657-.439-.84-.287-.182-.674-.273-1.162-.273-.912 0-1.856.306-2.832.918l-1.602-2.578a7.773 7.773 0 0 1 2.315-1.113c.794-.222 1.702-.332 2.724-.332 1.478 0 2.637.293 3.477.878.84.586 1.26 1.394 1.26 2.422Z" fill="#1F1E1E"/>
    <circle cx="697" cy="197" r="11.5" stroke="#1F1E1E"/>
    <circle cx="768" cy="198" r="11.5" stroke="#1F1E1E"/>
    <circle cx="697" cy="230" r="11.5" stroke="#1F1E1E"/>
    <circle cx="768" cy="231" r="11.5" stroke="#1F1E1E"/>
    <circle cx="697" cy="263" r="11.5" stroke="#1F1E1E"/>
    <circle cx="768" cy="264" r="11.5" stroke="#1F1E1E"/>
    <circle cx="733" cy="294" r="11.5" stroke="#1F1E1E"/>
    <path opacity=".01" fill="#DEDEDE" d="M467 278h95v121h-95z"/>
    <path stroke="#1F1E1E" d="M494.5 278.5h40v93h-40z"/>
    <path opacity=".9" d="M515.484 322.645c.821 0 1.56.192 2.217.576a3.869 3.869 0 0 1 1.543 1.611c.371.697.557 1.501.557 2.412 0 1.595-.482 2.819-1.446 3.672-.957.853-2.408 1.279-4.355 1.279-1.667 0-3.027-.257-4.082-.771v-3.164c.566.26 1.204.475 1.914.644.716.17 1.331.254 1.846.254.716 0 1.266-.15 1.65-.449.384-.306.576-.755.576-1.348 0-.547-.195-.973-.586-1.279-.39-.306-.983-.459-1.777-.459-.605 0-1.26.114-1.963.342l-1.416-.703.537-7.539h8.145v3.213h-4.864l-.175 1.884c.507-.097.869-.149 1.084-.156.215-.013.413-.019.595-.019Z" fill="#1F1E1E"/>
    <circle cx="479" cy="290" r="11.5" stroke="#1F1E1E"/>
    <circle cx="550" cy="291" r="11.5" stroke="#1F1E1E"/>
    <circle cx="479" cy="323" r="11.5" stroke="#1F1E1E"/>
    <circle cx="550" cy="324" r="11.5" stroke="#1F1E1E"/>
    <circle cx="479" cy="356" r="11.5" stroke="#1F1E1E"/>
    <circle cx="550" cy="357" r="11.5" stroke="#1F1E1E"/>
    <circle cx="515" cy="387" r="11.5" stroke="#1F1E1E"/>
    <path opacity=".01" fill="#DEDEDE" d="M246 278h95v121h-95z"/>
    <path stroke="#1F1E1E" d="M273.5 278.5h40v93h-40z"/>
    <circle cx="258" cy="290" r="11.5" stroke="#1F1E1E"/>
    <circle cx="329" cy="291" r="11.5" stroke="#1F1E1E"/>
    <circle cx="258" cy="323" r="11.5" stroke="#1F1E1E"/>
    <circle cx="329" cy="324" r="11.5" stroke="#1F1E1E"/>
    <circle cx="258" cy="356" r="11.5" stroke="#1F1E1E"/>
    <circle cx="329" cy="357" r="11.5" stroke="#1F1E1E"/>
    <circle cx="294" cy="387" r="11.5" stroke="#1F1E1E"/>
    <path d="M288.684 326.965c0-1.992.283-3.604.849-4.834.573-1.237 1.413-2.149 2.52-2.735 1.113-.585 2.483-.878 4.111-.878.579 0 1.257.055 2.031.166v3.017a11.335 11.335 0 0 0-2.119-.185c-1.289 0-2.249.283-2.881.849-.631.567-.976 1.491-1.035 2.774h.117c.586-1.107 1.527-1.66 2.823-1.66 1.269 0 2.252.41 2.949 1.23.703.814 1.055 1.95 1.055 3.408 0 1.569-.443 2.809-1.329 3.721-.885.905-2.122 1.357-3.711 1.357-1.686 0-3.004-.547-3.955-1.64-.95-1.094-1.425-2.624-1.425-4.59Zm5.293 3.174c.41 0 .742-.153.996-.459.26-.313.39-.808.39-1.485 0-1.159-.449-1.738-1.347-1.738-.443 0-.804.15-1.084.449-.274.3-.411.664-.411 1.094 0 .625.134 1.139.401 1.543.267.397.618.596 1.055.596Z" fill="#1F1E1E"/>
    <path opacity=".01" fill="#DEDEDE" d="M0 185h95v121H0z"/>
    <path stroke="#1F1E1E" d="M27.5 185.5h40v93h-40z"/>
    <circle cx="12" cy="197" r="11.5" stroke="#1F1E1E"/>
    <circle cx="83" cy="198" r="11.5" stroke="#1F1E1E"/>
    <circle cx="12" cy="230" r="11.5" stroke="#1F1E1E"/>
    <circle cx="83" cy="231" r="11.5" stroke="#1F1E1E"/>
    <circle cx="12" cy="263" r="11.5" stroke="#1F1E1E"/>
    <circle cx="83" cy="264" r="11.5" stroke="#1F1E1E"/>
    <circle cx="48" cy="294" r="11.5" stroke="#1F1E1E"/>
    <path d="M45.2 241h-3.917v-7.559c0-.918.02-1.757.059-2.519-.241.293-.54.599-.899.918l-1.62 1.338-2.003-2.461 4.903-3.994h3.476V241Zm11.718 0h-3.916v-7.559c0-.918.02-1.757.058-2.519a8.36 8.36 0 0 1-.898.918l-1.621 1.338-2.002-2.461 4.902-3.994h3.477V241Z" fill="#1F1E1E"/>
    <path opacity=".01" fill="#DEDEDE" d="M194 0h90v91h-90z"/>
    <path stroke="#BC3324" d="M222.5 27.5h61v36h-61z"/>
    <path d="M256.064 45.256c0 2.793-.602 4.814-1.806 6.064-1.205 1.25-3.132 1.875-5.781 1.875-.873 0-1.537-.032-1.993-.097V50.04c.56.104 1.12.156 1.68.156 1.38 0 2.445-.283 3.193-.85.749-.572 1.156-1.474 1.221-2.704h-.117c-.254.468-.505.807-.752 1.015-.247.209-.55.368-.908.479-.358.11-.804.166-1.338.166-1.237 0-2.204-.414-2.901-1.24-.696-.827-1.044-1.967-1.044-3.419 0-1.581.449-2.822 1.347-3.72.905-.899 2.142-1.348 3.711-1.348 1.745 0 3.096.58 4.053 1.739.957 1.158 1.435 2.805 1.435 4.94Zm-5.38-3.594a1.31 1.31 0 0 0-1.036.46c-.26.305-.39.797-.39 1.474 0 .534.114.96.342 1.279.227.313.576.469 1.045.469.423 0 .791-.153 1.103-.46.313-.305.469-.673.469-1.103 0-.58-.147-1.077-.44-1.494-.286-.417-.651-.625-1.093-.625Z" fill="#BC3324"/>
    <circle cx="251" cy="79" r="11.5" transform="rotate(180 251 79)" stroke="#BC3324"/>
    <circle cx="206" cy="43" r="11.5" transform="rotate(180 206 43)" stroke="#BC3324"/>
    <circle cx="251" cy="12" r="11.5" transform="rotate(180 251 12)" stroke="#BC3324"/>
    <path opacity=".01" fill="#DEDEDE" d="M159 142h90v91h-90z"/>
    <path stroke="#BC3324" d="M187.5 169.5h61v36h-61z"/>
    <path d="M215.898 180.518c.944 0 1.771.127 2.481.38.716.254 1.276.642 1.68 1.163.403.514.605 1.162.605 1.943 0 .573-.107 1.077-.322 1.514a3.575 3.575 0 0 1-.869 1.132 5.698 5.698 0 0 1-1.27.83c.449.254.895.551 1.338.889.443.339.811.739 1.104 1.201.293.456.439 1 .439 1.631 0 .762-.186 1.445-.557 2.051-.371.599-.94 1.074-1.709 1.426-.768.345-1.754.517-2.959.517-1.204 0-2.19-.166-2.959-.498-.768-.332-1.334-.794-1.699-1.386-.358-.599-.537-1.29-.537-2.071 0-.664.111-1.224.332-1.679.228-.456.537-.844.928-1.163a7.33 7.33 0 0 1 1.338-.859 7.026 7.026 0 0 1-1.094-.908 3.956 3.956 0 0 1-.791-1.162 3.601 3.601 0 0 1-.293-1.485c0-.768.205-1.409.615-1.923.41-.515.977-.899 1.699-1.153.73-.26 1.563-.39 2.5-.39Zm-1.699 10.566c0 .397.143.719.43.967.286.247.683.371 1.191.371.593 0 1.026-.111 1.299-.332.28-.228.42-.537.42-.928 0-.293-.088-.557-.264-.791a2.851 2.851 0 0 0-.595-.625 5.613 5.613 0 0 0-.596-.41l-.264-.156a5.234 5.234 0 0 0-.81.508c-.241.182-.436.39-.586.624-.15.228-.225.486-.225.772Zm1.68-7.783a1.28 1.28 0 0 0-.83.283c-.235.182-.352.433-.352.752 0 .208.049.404.147.586.104.176.241.338.41.488.176.15.371.287.586.41a7.12 7.12 0 0 0 .556-.361 1.81 1.81 0 0 0 .459-.469c.124-.182.186-.4.186-.654 0-.319-.117-.57-.352-.752a1.227 1.227 0 0 0-.81-.283Z" fill="#BC3324"/>
    <circle cx="216" cy="221" r="11.5" transform="rotate(180 216 221)" stroke="#BC3324"/>
    <circle cx="171" cy="185" r="11.5" transform="rotate(180 171 185)" stroke="#BC3324"/>
    <circle cx="216" cy="154" r="11.5" transform="rotate(180 216 154)" stroke="#BC3324"/>
    <path opacity=".01" fill="#DEDEDE" d="M507 8h111v83H507z"/>
    <path stroke="#BC3324" d="M507.5 35.5h83v28h-83z"/>
    <path d="M552.199 56h-3.916v-7.773c0-.352.003-.74.01-1.162.013-.424.029-.805.049-1.143a6.41 6.41 0 0 1-.479.518c-.143.143-.283.276-.42.4l-1.621 1.338-2.002-2.461 4.903-3.994h3.476V56Z" fill="#BC3324"/>
    <circle cx="527" cy="20" r="11.5" stroke="#BC3324"/>
    <circle cx="570" cy="20" r="11.5" stroke="#BC3324"/>
    <circle cx="606" cy="48" r="11.5" stroke="#BC3324"/>
    <circle cx="570" cy="79" r="11.5" stroke="#BC3324"/>
    <circle cx="527" cy="79" r="11.5" stroke="#BC3324"/>
    <path opacity=".01" fill="#DEDEDE" d="M507 155h111v83H507z"/>
    <path stroke="#BC3324" d="M507.5 182.5h83v28h-83z"/>
    <path d="M554.416 199.236h-1.572V202h-3.809v-2.764h-5.693v-2.832l5.937-8.681h3.565v8.632h1.572v2.881Zm-5.381-2.881v-1.66c0-.312.01-.732.029-1.259.026-.534.046-.814.059-.84h-.107c-.222.501-.472.97-.752 1.406l-1.582 2.353h2.353Z" fill="#BC3324"/>
    <circle cx="527" cy="167" r="11.5" stroke="#BC3324"/>
    <circle cx="570" cy="167" r="11.5" stroke="#BC3324"/>
    <circle cx="606" cy="195" r="11.5" stroke="#BC3324"/>
    <circle cx="570" cy="226" r="11.5" stroke="#BC3324"/>
    <circle cx="527" cy="226" r="11.5" stroke="#BC3324"/>
    <path opacity=".01" fill="#DEDEDE" d="M293 183h138v56H293z"/>
    <path stroke="#BC3324" d="M320.5 183.5h83v28h-83z"/>
    <path d="m358.041 204 4.902-11.084h-6.181v-3.193h10.302v2.275L362.035 204h-3.994Z" fill="#BC3324"/>
    <circle cx="383" cy="227" r="11.5" stroke="#BC3324"/>
    <circle cx="419" cy="197" r="11.5" stroke="#BC3324"/>
    <circle cx="305" cy="197" r="11.5" stroke="#BC3324"/>
    <circle cx="340" cy="227" r="11.5" stroke="#BC3324"/>
</g></symbol></svg>