<svg viewBox="0 0 150 92" fill="none" xmlns="http://www.w3.org/2000/svg">
<path d="M1.87734 33.33C1.90734 33.24 4.75734 27.87 5.95734 22.35V39H8.80734V18.09H5.95734C5.95734 24.51 1.48734 33 1.42734 33.09L1.87734 33.33ZM11.3625 28.59C11.3625 36.69 15.2625 39.48 20.4225 39.48C25.3425 39.48 29.1225 36.75 29.1225 31.5C29.1225 26.25 25.4025 23.55 20.4825 23.55C17.0625 23.55 14.8425 26.01 14.3625 29.25C14.3625 22.17 16.4625 18.15 20.4225 18.15C23.2425 18.15 24.5625 19.89 25.0125 22.95L28.0425 22.2C26.5425 19.05 23.9925 17.64 20.4225 17.64C15.6825 17.67 11.3625 21.09 11.3625 28.59ZM20.4825 24.06C23.6625 24.06 26.1825 26.31 26.1825 31.5C26.1825 36.63 23.5125 38.97 20.4225 38.97C17.1225 38.97 15.8025 37.59 14.8725 33.93C14.0025 29.82 15.4425 24.06 20.4825 24.06ZM37.9458 17.28H37.4058L30.1758 40.23H30.7158L37.9458 17.28ZM39.2309 33.33C39.2609 33.24 42.1109 27.87 43.3109 22.35V39H46.1609V18.09H43.3109C43.3109 24.51 38.8409 33 38.7809 33.09L39.2309 33.33ZM49.016 24.18L52.136 24.6C52.136 21.75 52.586 18.09 56.396 18.09C58.856 18.09 60.926 20.04 60.926 24.45C60.926 28.74 59.066 29.73 55.496 30.96C51.926 32.19 49.136 33.18 49.136 39H64.616V36.15H49.946C50.726 33.15 52.886 32.4 55.646 31.44C59.156 30.24 63.866 28.92 63.866 24.45C63.866 19.98 60.566 17.7 56.396 17.7C52.736 17.7 49.016 19.56 49.016 24.18ZM73.7466 17.28H73.2066L65.9766 40.23H66.5166L73.7466 17.28ZM75.0316 24.18L78.1516 24.6C78.1516 21.75 78.6016 18.09 82.4116 18.09C84.8716 18.09 86.9416 20.04 86.9416 24.45C86.9416 28.74 85.0816 29.73 81.5116 30.96C77.9416 32.19 75.1516 33.18 75.1516 39H90.6316V36.15H75.9616C76.7416 33.15 78.9016 32.4 81.6616 31.44C85.1716 30.24 89.8816 28.92 89.8816 24.45C89.8816 19.98 86.5816 17.7 82.4116 17.7C78.7516 17.7 75.0316 19.56 75.0316 24.18ZM93.0422 28.56C93.0422 36.21 97.7222 39.45 102.672 39.48C107.652 39.45 112.332 36.21 112.332 28.56C112.332 21.06 107.652 17.67 102.672 17.64C97.7222 17.67 93.0422 21.06 93.0422 28.56ZM102.672 18.06C106.272 18.06 109.422 20.01 109.422 28.56C109.422 37.17 106.272 39.06 102.672 39.06C99.1022 39.06 95.9822 37.23 95.9822 28.56C95.9822 20.01 99.1022 18.06 102.672 18.06ZM114.729 24.18L117.849 24.6C117.849 21.75 118.299 18.09 122.109 18.09C124.569 18.09 126.639 20.04 126.639 24.45C126.639 28.74 124.779 29.73 121.209 30.96C117.639 32.19 114.849 33.18 114.849 39H130.329V36.15H115.659C116.439 33.15 118.599 32.4 121.359 31.44C124.869 30.24 129.579 28.92 129.579 24.45C129.579 19.98 126.279 17.7 122.109 17.7C118.449 17.7 114.729 19.56 114.729 24.18ZM133.039 24.18L136.159 24.6C136.159 21.75 136.609 18.09 140.419 18.09C142.879 18.09 144.949 20.04 144.949 24.45C144.949 28.74 143.089 29.73 139.519 30.96C135.949 32.19 133.159 33.18 133.159 39H148.639V36.15H133.969C134.749 33.15 136.909 32.4 139.669 31.44C143.179 30.24 147.889 28.92 147.889 24.45C147.889 19.98 144.589 17.7 140.419 17.7C136.759 17.7 133.039 19.56 133.039 24.18Z" fill="#1F1E1E"/>
<path d="M5.8 74H8.104V68.368H9.48C12.952 68.368 13.032 71.296 13.032 74H15.336C15.336 70.768 14.36 68.688 10.92 68.192L14.248 62.848H13.88L10.584 68.144C10.184 68.112 9.944 68.096 9.528 68.096H8.104V62.848H5.8V74ZM16.3706 74H16.6586L18.2266 69.44H22.7866L24.5626 74H26.9466L22.6266 62.848H20.2106L16.3706 74ZM20.3706 63.2L22.6906 69.168H18.3226L20.3706 63.2ZM26.8569 68.48C26.8569 72.064 29.9129 73.008 33.2089 73.008H33.4649V74H35.7849V73.008H36.0249C39.3209 73.008 42.3769 72.064 42.3769 68.48C42.3769 64.896 39.3369 63.824 36.0569 63.824H35.8009V62.848H33.4649V63.824H33.1929C29.8969 63.824 26.8569 64.896 26.8569 68.48ZM29.1769 68.4C29.1769 65.472 30.7289 64.096 33.1289 64.096H33.4649V72.736H33.1289C30.7289 72.736 29.1769 71.328 29.1769 68.4ZM35.7849 72.736V64.096H36.1209C38.5049 64.096 40.0729 65.472 40.0729 68.4C40.0729 71.328 38.5049 72.736 36.1209 72.736H35.7849ZM43.7375 74H52.5215V73.728H46.0095V68.336H51.0975V68.064H46.0095V63.12H52.5215V62.848H43.7375V74ZM67.858 74H68.258L63.202 69.488L68.258 64.976H67.858L62.818 69.488L67.858 74ZM59.89 69.488L64.93 74H65.33L60.29 69.488L65.33 64.976H64.93L59.89 69.488ZM71.9626 74V63.12H77.9626V74H80.2346V62.848H69.6906V74H71.9626ZM85.6233 63.12L85.6393 74H87.9113V63.12H92.5033V62.848H81.0312V63.12H85.6233ZM93.3 74H95.572C98.724 74 100.932 71.92 101.572 68.992V74H103.844V62.848H101.572V66.912C101.252 73.12 97.06 73.728 95.572 73.728V62.848H93.3V74ZM109.089 70.16C111.441 70.176 112.401 67.2 112.721 65.232V74H115.025V62.848H112.721C112.721 65.024 111.873 69.888 109.089 69.888C108.129 69.888 107.729 68.976 107.729 66.736V62.848H105.441V66.704C105.441 68.992 106.689 70.16 109.089 70.16ZM116.628 74H118.932V68.368H120.308C123.78 68.368 123.86 71.296 123.86 74H126.164C126.164 70.768 125.188 68.688 121.748 68.192L125.076 62.848H124.708L121.412 68.144C121.012 68.112 120.772 68.096 120.356 68.096H118.932V62.848H116.628V74ZM127.199 74H127.487L129.055 69.44H133.615L135.391 74H137.775L133.455 62.848H131.039L127.199 74ZM131.199 63.2L133.519 69.168H129.151L131.199 63.2ZM141.818 64.976L146.858 69.488L141.818 74H142.202L147.258 69.488L142.202 64.976H141.818ZM139.29 74L144.33 69.488L139.29 64.976H138.89L143.93 69.488L138.89 74H139.29Z" fill="#1F1E1E"/>
<rect x="9" width="139" height="1" fill="url(#paint0_linear_466_13861)"/>
<rect x="9" y="91" width="139" height="1" fill="url(#paint1_linear_466_13861)"/>
<defs>
<linearGradient id="paint0_linear_466_13861" x1="148" y1="1.43612e-05" x2="32.8286" y2="-3.2263e-05" gradientUnits="userSpaceOnUse">
<stop stop-color="#1C1B1B"/>
<stop offset="1" stop-color="white" stop-opacity="0"/>
</linearGradient>
<linearGradient id="paint1_linear_466_13861" x1="148" y1="91" x2="32.8286" y2="91" gradientUnits="userSpaceOnUse">
<stop stop-color="#1C1B1B"/>
<stop offset="1" stop-color="white" stop-opacity="0"/>
</linearGradient>
</defs>
</svg>
