<svg viewBox="0 0 178 92" fill="none" xmlns="http://www.w3.org/2000/svg">
<path d="M1.35 24.18L4.47 24.6C4.47 21.75 4.92 18.09 8.73 18.09C11.19 18.09 13.26 20.04 13.26 24.45C13.26 28.74 11.4 29.73 7.83 30.96C4.26 32.19 1.47 33.18 1.47 39H16.95V36.15H2.28C3.06 33.15 5.22 32.4 7.98 31.44C11.49 30.24 16.2 28.92 16.2 24.45C16.2 19.98 12.9 17.7 8.73 17.7C5.07 17.7 1.35 19.56 1.35 24.18ZM19.3605 28.56C19.3605 36.21 24.0405 39.45 28.9905 39.48C33.9705 39.45 38.6505 36.21 38.6505 28.56C38.6505 21.06 33.9705 17.67 28.9905 17.64C24.0405 17.67 19.3605 21.06 19.3605 28.56ZM28.9905 18.06C32.5905 18.06 35.7405 20.01 35.7405 28.56C35.7405 37.17 32.5905 39.06 28.9905 39.06C25.4205 39.06 22.3005 37.23 22.3005 28.56C22.3005 20.01 25.4205 18.06 28.9905 18.06ZM40.2973 37.53C40.2973 38.61 41.1673 39.48 42.2473 39.48C43.3273 39.48 44.1973 38.61 44.1973 37.53C44.1973 36.45 43.3273 35.55 42.2473 35.55C41.1673 35.55 40.2973 36.45 40.2973 37.53ZM45.8156 28.56C45.8156 36.21 50.4956 39.45 55.4456 39.48C60.4256 39.45 65.1056 36.21 65.1056 28.56C65.1056 21.06 60.4256 17.67 55.4456 17.64C50.4956 17.67 45.8156 21.06 45.8156 28.56ZM55.4456 18.06C59.0456 18.06 62.1956 20.01 62.1956 28.56C62.1956 37.17 59.0456 39.06 55.4456 39.06C51.8756 39.06 48.7556 37.23 48.7556 28.56C48.7556 20.01 51.8756 18.06 55.4456 18.06ZM67.2023 28.56C67.2023 36.21 71.8823 39.45 76.8323 39.48C81.8123 39.45 86.4923 36.21 86.4923 28.56C86.4923 21.06 81.8123 17.67 76.8323 17.64C71.8823 17.67 67.2023 21.06 67.2023 28.56ZM76.8323 18.06C80.4323 18.06 83.5823 20.01 83.5823 28.56C83.5823 37.17 80.4323 39.06 76.8323 39.06C73.2623 39.06 70.1423 37.23 70.1423 28.56C70.1423 20.01 73.2623 18.06 76.8323 18.06Z" fill="#1F1E1E"/>
<path d="M100.96 28.848V40H103.232V34.352H109.376V40H111.648V28.848H109.376V34.08H103.232V28.848H100.96ZM113.089 40H113.377L114.945 35.44H119.505L121.281 40H123.665L119.345 28.848H116.929L113.089 40ZM117.089 29.2L119.409 35.168H115.041L117.089 29.2ZM126.745 36.16C129.097 36.176 130.057 33.2 130.377 31.232V40H132.681V28.848H130.377C130.377 31.024 129.529 35.888 126.745 35.888C125.785 35.888 125.385 34.976 125.385 32.736V28.848H123.097V32.704C123.097 34.992 124.345 36.16 126.745 36.16ZM133.964 40H134.252L135.82 35.44H140.38L142.156 40H144.54L140.22 28.848H137.804L133.964 40ZM137.964 29.2L140.284 35.168H135.916L137.964 29.2ZM145.261 40H145.549L149.261 29.232L153.453 40H155.837L151.517 28.848H149.101L145.261 40ZM155.748 34.464C155.748 38.512 159.14 40.256 162.436 40.256C165.748 40.256 169.124 38.512 169.124 34.464C169.124 30.432 165.748 28.608 162.436 28.608C159.124 28.608 155.748 30.432 155.748 34.464ZM162.436 28.864C164.836 28.864 166.772 30.272 166.772 34.432C166.772 38.608 164.836 40.016 162.436 40.016C160.036 40.016 158.1 38.608 158.1 34.432C158.1 30.272 160.036 28.864 162.436 28.864Z" fill="#1F1E1E"/>
<path d="M0.48 74H0.768L4.48 63.232L8.672 74H11.056L6.736 62.848H4.32L0.48 74ZM12.3313 74H21.1153V73.728H14.6033V68.336H19.6913V68.064H14.6033V63.12H21.1153V62.848H12.3313V74ZM22.3975 62.848V74H24.6695V68.352H30.8135V74H33.0855V62.848H30.8135V68.08H24.6695V62.848H22.3975ZM34.8469 74H37.1189C40.2709 74 42.4789 71.92 43.1189 68.992V74H45.3909V62.848H43.1189V66.912C42.7989 73.12 38.6069 73.728 37.1189 73.728V62.848H34.8469V74ZM47.1475 62.848V74H49.4195V68.352H55.5635V74H57.8355V62.848H55.5635V68.08H49.4195V62.848H47.1475ZM59.2769 74H59.5649L61.1329 69.44H65.6929L67.4689 74H69.8529L65.5329 62.848H63.1169L59.2769 74ZM63.2769 63.2L65.5969 69.168H61.2289L63.2769 63.2ZM77.2144 70.976C77.2304 70.928 78.7504 68.032 79.3904 65.088V74H81.6624V62.848H79.3904C79.3904 66.272 77.0064 70.8 76.9744 70.848L77.2144 70.976ZM83.0288 68.432C83.0288 72.512 85.9088 74.24 88.5488 74.256C91.1888 74.24 94.0688 72.512 94.0688 68.432C94.0688 64.432 91.2048 62.624 88.5488 62.608C85.9088 62.624 83.0288 64.432 83.0288 68.432ZM88.5488 62.848C90.4688 62.848 91.7648 63.888 91.7648 68.432C91.7648 73.024 90.4688 74.032 88.5488 74.032C86.6288 74.032 85.3488 73.056 85.3488 68.432C85.3488 63.888 86.6288 62.848 88.5488 62.848ZM102.263 61.6H101.991V75.536H102.263V61.6ZM110.185 66.096L112.601 66.32C112.601 64.8 112.473 62.88 114.505 62.88C115.817 62.88 116.553 63.888 116.553 66.24C116.553 68.528 116.009 69.024 114.025 69.712C112.121 70.368 110.633 70.896 110.633 74H118.889V71.728H111.353C111.897 70.736 112.889 70.384 114.105 69.968C115.913 69.344 118.857 68.528 118.857 66.24C118.857 63.792 117.737 62.624 114.505 62.624C111.977 62.624 110.185 63.632 110.185 66.096ZM126.498 72.304C128.418 74.192 130.722 74.256 131.922 74.256C135.698 74.256 138.162 71.76 138.162 68.432C138.162 65.072 135.698 62.608 131.922 62.608C128.914 62.608 127.426 64.16 127.218 65.424L127.522 65.488C127.97 63.424 130.29 62.88 131.922 62.88C134.546 62.88 135.682 64.88 135.762 68.064H131.65V68.336H135.762C135.762 71.92 134.322 73.952 131.922 73.952C130.77 73.968 128.53 73.936 126.69 72.128L126.498 72.304ZM142.03 63.12L142.046 74H144.318V63.12H148.91V62.848H137.438V63.12H142.03ZM148.105 74H148.393L149.961 69.44H154.521L156.297 74H158.681L154.361 62.848H151.945L148.105 74ZM152.105 63.2L154.425 69.168H150.057L152.105 63.2ZM159.716 74H162.052C162.052 71.28 162.132 68.32 165.588 68.32H166.98V74H169.236V68.32H170.276C174.084 68.32 174.148 71.28 174.148 74H176.5C176.5 69.984 174.564 68.048 170.468 68.048V66.72C170.468 64.816 170.692 62.816 172.884 62.816C174.356 62.816 175.252 63.712 175.252 64.896C175.252 66.032 174.324 66.96 173.188 66.96V67.232C174.468 67.232 175.508 66.176 175.508 64.896C175.508 63.568 174.516 62.56 172.868 62.56C170.404 62.56 170.212 64.816 170.212 66.928V68.048H169.236V62.848H166.98V68.048H166.004V66.912C166.004 64.8 165.812 62.544 163.348 62.544C161.7 62.544 160.692 63.552 160.692 64.88C160.692 66.176 161.748 67.216 163.028 67.216V66.96C161.892 66.96 160.964 66.016 160.964 64.88C160.964 63.696 161.844 62.8 163.316 62.8C165.524 62.8 165.748 64.8 165.748 66.704V68.048C161.652 68.048 159.716 69.984 159.716 74Z" fill="#1F1E1E"/>
<rect x="160" y="92" width="160" height="1" transform="rotate(180 160 92)" fill="url(#paint0_linear_466_13862)"/>
<rect x="160" y="1" width="160" height="1" transform="rotate(180 160 1)" fill="url(#paint1_linear_466_13862)"/>
<defs>
<linearGradient id="paint0_linear_466_13862" x1="320" y1="92" x2="187.429" y2="92" gradientUnits="userSpaceOnUse">
<stop stop-color="#1C1B1B"/>
<stop offset="1" stop-color="white" stop-opacity="0"/>
</linearGradient>
<linearGradient id="paint1_linear_466_13862" x1="320" y1="1.00001" x2="187.429" y2="0.999953" gradientUnits="userSpaceOnUse">
<stop stop-color="#1C1B1B"/>
<stop offset="1" stop-color="white" stop-opacity="0"/>
</linearGradient>
</defs>
</svg>
